<mxfile host="Electron" modified="2024-06-06T07:26:38.521Z" agent="Mozilla/5.0 (Windows NT 10.0; Win64; x64) AppleWebKit/537.36 (KHTML, like Gecko) draw.io/24.4.13 Chrome/124.0.6367.207 Electron/30.0.6 Safari/537.36" etag="AUoHy0ywEJY6uxyeFTT5" version="24.4.13" type="device" pages="5">
  <diagram name="int" id="iIggbnBJ5-thpCaKUW1-">
    <mxGraphModel dx="600" dy="359" grid="1" gridSize="10" guides="1" tooltips="1" connect="1" arrows="1" fold="1" page="1" pageScale="1" pageWidth="850" pageHeight="1100" math="1" shadow="0">
      <root>
        <mxCell id="0" />
        <mxCell id="1" parent="0" />
        <mxCell id="7MEtJs_SX1NOVRpLTB5A-1" value="" style="rounded=0;whiteSpace=wrap;html=1;fillColor=#FF9999;" vertex="1" parent="1">
          <mxGeometry x="200" y="240" width="10" height="40" as="geometry" />
        </mxCell>
        <mxCell id="7MEtJs_SX1NOVRpLTB5A-3" value="" style="rounded=0;whiteSpace=wrap;html=1;fillColor=#FF9999;" vertex="1" parent="1">
          <mxGeometry x="210" y="240" width="10" height="40" as="geometry" />
        </mxCell>
        <mxCell id="7MEtJs_SX1NOVRpLTB5A-4" value="" style="rounded=0;whiteSpace=wrap;html=1;fillColor=#FF9999;" vertex="1" parent="1">
          <mxGeometry x="220" y="240" width="10" height="40" as="geometry" />
        </mxCell>
        <mxCell id="7MEtJs_SX1NOVRpLTB5A-5" value="" style="rounded=0;whiteSpace=wrap;html=1;fillColor=#FF9999;" vertex="1" parent="1">
          <mxGeometry x="230" y="240" width="10" height="40" as="geometry" />
        </mxCell>
        <mxCell id="7MEtJs_SX1NOVRpLTB5A-11" value="" style="rounded=0;whiteSpace=wrap;html=1;fillColor=#FF9999;" vertex="1" parent="1">
          <mxGeometry x="240" y="240" width="10" height="40" as="geometry" />
        </mxCell>
        <mxCell id="7MEtJs_SX1NOVRpLTB5A-12" value="" style="rounded=0;whiteSpace=wrap;html=1;fillColor=#FF9999;" vertex="1" parent="1">
          <mxGeometry x="250" y="240" width="10" height="40" as="geometry" />
        </mxCell>
        <mxCell id="7MEtJs_SX1NOVRpLTB5A-13" value="" style="rounded=0;whiteSpace=wrap;html=1;fillColor=#FF9999;" vertex="1" parent="1">
          <mxGeometry x="260" y="240" width="10" height="40" as="geometry" />
        </mxCell>
        <mxCell id="7MEtJs_SX1NOVRpLTB5A-14" value="" style="rounded=0;whiteSpace=wrap;html=1;fillColor=#FF9999;" vertex="1" parent="1">
          <mxGeometry x="270" y="240" width="10" height="40" as="geometry" />
        </mxCell>
        <mxCell id="7MEtJs_SX1NOVRpLTB5A-39" value="8-bit unsigned int" style="text;html=1;align=center;verticalAlign=middle;whiteSpace=wrap;rounded=0;" vertex="1" parent="1">
          <mxGeometry x="74" y="245" width="100" height="30" as="geometry" />
        </mxCell>
        <mxCell id="7MEtJs_SX1NOVRpLTB5A-40" value="" style="rounded=0;whiteSpace=wrap;html=1;fillColor=#99FFFF;" vertex="1" parent="1">
          <mxGeometry x="200" y="346" width="10" height="40" as="geometry" />
        </mxCell>
        <mxCell id="7MEtJs_SX1NOVRpLTB5A-41" value="" style="rounded=0;whiteSpace=wrap;html=1;fillColor=#FF9999;" vertex="1" parent="1">
          <mxGeometry x="210" y="346" width="10" height="40" as="geometry" />
        </mxCell>
        <mxCell id="7MEtJs_SX1NOVRpLTB5A-42" value="" style="rounded=0;whiteSpace=wrap;html=1;fillColor=#FF9999;" vertex="1" parent="1">
          <mxGeometry x="220" y="346" width="10" height="40" as="geometry" />
        </mxCell>
        <mxCell id="7MEtJs_SX1NOVRpLTB5A-43" value="" style="rounded=0;whiteSpace=wrap;html=1;fillColor=#FF9999;" vertex="1" parent="1">
          <mxGeometry x="230" y="346" width="10" height="40" as="geometry" />
        </mxCell>
        <mxCell id="7MEtJs_SX1NOVRpLTB5A-44" value="" style="rounded=0;whiteSpace=wrap;html=1;fillColor=#FF9999;" vertex="1" parent="1">
          <mxGeometry x="240" y="346" width="10" height="40" as="geometry" />
        </mxCell>
        <mxCell id="7MEtJs_SX1NOVRpLTB5A-45" value="" style="rounded=0;whiteSpace=wrap;html=1;fillColor=#FF9999;" vertex="1" parent="1">
          <mxGeometry x="250" y="346" width="10" height="40" as="geometry" />
        </mxCell>
        <mxCell id="7MEtJs_SX1NOVRpLTB5A-46" value="" style="rounded=0;whiteSpace=wrap;html=1;fillColor=#FF9999;" vertex="1" parent="1">
          <mxGeometry x="260" y="346" width="10" height="40" as="geometry" />
        </mxCell>
        <mxCell id="7MEtJs_SX1NOVRpLTB5A-47" value="" style="rounded=0;whiteSpace=wrap;html=1;fillColor=#FF9999;" vertex="1" parent="1">
          <mxGeometry x="270" y="346" width="10" height="40" as="geometry" />
        </mxCell>
        <mxCell id="7MEtJs_SX1NOVRpLTB5A-48" value="8-bit signed int" style="text;html=1;align=center;verticalAlign=middle;whiteSpace=wrap;rounded=0;" vertex="1" parent="1">
          <mxGeometry x="74" y="351" width="100" height="30" as="geometry" />
        </mxCell>
        <mxCell id="7MEtJs_SX1NOVRpLTB5A-49" value="" style="ellipse;whiteSpace=wrap;html=1;fillColor=#CCCCCC;" vertex="1" parent="1">
          <mxGeometry x="272.5" y="389" width="5" height="5" as="geometry" />
        </mxCell>
        <mxCell id="7MEtJs_SX1NOVRpLTB5A-50" value="&lt;font style=&quot;font-size: 8px;&quot;&gt;$$b_0$$&lt;/font&gt;" style="text;html=1;align=center;verticalAlign=middle;whiteSpace=wrap;rounded=0;" vertex="1" parent="1">
          <mxGeometry x="273.5" y="395" width="5" height="10" as="geometry" />
        </mxCell>
        <mxCell id="7MEtJs_SX1NOVRpLTB5A-51" value="" style="ellipse;whiteSpace=wrap;html=1;fillColor=#CCCCCC;" vertex="1" parent="1">
          <mxGeometry x="202.5" y="389" width="5" height="5" as="geometry" />
        </mxCell>
        <mxCell id="7MEtJs_SX1NOVRpLTB5A-52" value="&lt;font style=&quot;font-size: 8px;&quot;&gt;$$b_7$$&lt;/font&gt;" style="text;html=1;align=center;verticalAlign=middle;whiteSpace=wrap;rounded=0;" vertex="1" parent="1">
          <mxGeometry x="202.5" y="395" width="5" height="10" as="geometry" />
        </mxCell>
        <mxCell id="7MEtJs_SX1NOVRpLTB5A-54" value="" style="ellipse;whiteSpace=wrap;html=1;fillColor=#CCCCCC;" vertex="1" parent="1">
          <mxGeometry x="272.5" y="283" width="5" height="5" as="geometry" />
        </mxCell>
        <mxCell id="7MEtJs_SX1NOVRpLTB5A-55" value="&lt;font style=&quot;font-size: 8px;&quot;&gt;$$b_0$$&lt;/font&gt;" style="text;html=1;align=center;verticalAlign=middle;whiteSpace=wrap;rounded=0;" vertex="1" parent="1">
          <mxGeometry x="273.5" y="289" width="5" height="10" as="geometry" />
        </mxCell>
        <mxCell id="7MEtJs_SX1NOVRpLTB5A-57" value="&lt;font style=&quot;font-size: 10px;&quot;&gt;sign bit&lt;/font&gt;" style="text;html=1;align=center;verticalAlign=middle;whiteSpace=wrap;rounded=0;" vertex="1" parent="1">
          <mxGeometry x="174" y="318" width="40" height="10" as="geometry" />
        </mxCell>
        <mxCell id="7MEtJs_SX1NOVRpLTB5A-58" value="" style="endArrow=none;html=1;rounded=0;exitX=0.5;exitY=0;exitDx=0;exitDy=0;" edge="1" parent="1">
          <mxGeometry width="50" height="50" relative="1" as="geometry">
            <mxPoint x="205" y="342" as="sourcePoint" />
            <mxPoint x="205" y="332" as="targetPoint" />
          </mxGeometry>
        </mxCell>
        <mxCell id="7MEtJs_SX1NOVRpLTB5A-59" value="" style="endArrow=none;html=1;rounded=0;" edge="1" parent="1">
          <mxGeometry width="50" height="50" relative="1" as="geometry">
            <mxPoint x="214.93" y="332" as="sourcePoint" />
            <mxPoint x="214.93" y="342" as="targetPoint" />
          </mxGeometry>
        </mxCell>
        <mxCell id="7MEtJs_SX1NOVRpLTB5A-60" value="" style="endArrow=none;html=1;rounded=0;" edge="1" parent="1">
          <mxGeometry width="50" height="50" relative="1" as="geometry">
            <mxPoint x="214.93" y="332" as="sourcePoint" />
            <mxPoint x="274.93" y="332" as="targetPoint" />
          </mxGeometry>
        </mxCell>
        <mxCell id="7MEtJs_SX1NOVRpLTB5A-61" value="" style="endArrow=none;html=1;rounded=0;" edge="1" parent="1">
          <mxGeometry width="50" height="50" relative="1" as="geometry">
            <mxPoint x="274.93" y="332" as="sourcePoint" />
            <mxPoint x="274.93" y="342" as="targetPoint" />
          </mxGeometry>
        </mxCell>
        <mxCell id="7MEtJs_SX1NOVRpLTB5A-62" value="&lt;font style=&quot;font-size: 10px;&quot;&gt;interger bit&lt;/font&gt;" style="text;html=1;align=center;verticalAlign=middle;whiteSpace=wrap;rounded=0;" vertex="1" parent="1">
          <mxGeometry x="218" y="318" width="55" height="10" as="geometry" />
        </mxCell>
        <mxCell id="7MEtJs_SX1NOVRpLTB5A-63" value="$$x = \sum_{i=0}^7 2^ib_i$$" style="text;html=1;align=center;verticalAlign=middle;whiteSpace=wrap;rounded=0;" vertex="1" parent="1">
          <mxGeometry x="320" y="245" width="125" height="30" as="geometry" />
        </mxCell>
        <mxCell id="7MEtJs_SX1NOVRpLTB5A-64" value="" style="ellipse;whiteSpace=wrap;html=1;fillColor=#CCCCCC;" vertex="1" parent="1">
          <mxGeometry x="202.5" y="283" width="5" height="5" as="geometry" />
        </mxCell>
        <mxCell id="7MEtJs_SX1NOVRpLTB5A-65" value="&lt;font style=&quot;font-size: 8px;&quot;&gt;$$b_7$$&lt;/font&gt;" style="text;html=1;align=center;verticalAlign=middle;whiteSpace=wrap;rounded=0;" vertex="1" parent="1">
          <mxGeometry x="202.5" y="289" width="5" height="10" as="geometry" />
        </mxCell>
        <mxCell id="7MEtJs_SX1NOVRpLTB5A-66" value="$$x = (-1)^{b_7}\times \sum_{i=0}^6 2^ib_i$$" style="text;html=1;align=center;verticalAlign=middle;whiteSpace=wrap;rounded=0;" vertex="1" parent="1">
          <mxGeometry x="320" y="346" width="125" height="30" as="geometry" />
        </mxCell>
      </root>
    </mxGraphModel>
  </diagram>
  <diagram id="G7kYtyYVhmEf8Za4Gg-k" name="float">
    <mxGraphModel dx="875" dy="524" grid="1" gridSize="10" guides="1" tooltips="1" connect="1" arrows="1" fold="1" page="1" pageScale="1" pageWidth="850" pageHeight="1100" math="1" shadow="0">
      <root>
        <mxCell id="0" />
        <mxCell id="1" parent="0" />
        <mxCell id="K6WirPKTo2s7ArF09NWG-1" value="" style="rounded=0;whiteSpace=wrap;html=1;fillColor=#99FFFF;" vertex="1" parent="1">
          <mxGeometry x="80" y="240" width="10" height="40" as="geometry" />
        </mxCell>
        <mxCell id="K6WirPKTo2s7ArF09NWG-2" value="" style="rounded=0;whiteSpace=wrap;html=1;fillColor=#99FF99;" vertex="1" parent="1">
          <mxGeometry x="90" y="240" width="10" height="40" as="geometry" />
        </mxCell>
        <mxCell id="K6WirPKTo2s7ArF09NWG-3" value="" style="rounded=0;whiteSpace=wrap;html=1;fillColor=#99FF99;" vertex="1" parent="1">
          <mxGeometry x="100" y="240" width="10" height="40" as="geometry" />
        </mxCell>
        <mxCell id="K6WirPKTo2s7ArF09NWG-4" value="" style="rounded=0;whiteSpace=wrap;html=1;fillColor=#99FF99;" vertex="1" parent="1">
          <mxGeometry x="110" y="240" width="10" height="40" as="geometry" />
        </mxCell>
        <mxCell id="K6WirPKTo2s7ArF09NWG-5" value="" style="rounded=0;whiteSpace=wrap;html=1;fillColor=#99FF99;" vertex="1" parent="1">
          <mxGeometry x="120" y="240" width="10" height="40" as="geometry" />
        </mxCell>
        <mxCell id="K6WirPKTo2s7ArF09NWG-6" value="" style="rounded=0;whiteSpace=wrap;html=1;fillColor=#99FF99;" vertex="1" parent="1">
          <mxGeometry x="130" y="240" width="10" height="40" as="geometry" />
        </mxCell>
        <mxCell id="K6WirPKTo2s7ArF09NWG-7" value="" style="rounded=0;whiteSpace=wrap;html=1;fillColor=#99FF99;" vertex="1" parent="1">
          <mxGeometry x="140" y="240" width="10" height="40" as="geometry" />
        </mxCell>
        <mxCell id="K6WirPKTo2s7ArF09NWG-8" value="" style="rounded=0;whiteSpace=wrap;html=1;fillColor=#99FF99;" vertex="1" parent="1">
          <mxGeometry x="150" y="240" width="10" height="40" as="geometry" />
        </mxCell>
        <mxCell id="K6WirPKTo2s7ArF09NWG-9" value="" style="rounded=0;whiteSpace=wrap;html=1;fillColor=#99FF99;" vertex="1" parent="1">
          <mxGeometry x="160" y="240" width="10" height="40" as="geometry" />
        </mxCell>
        <mxCell id="K6WirPKTo2s7ArF09NWG-10" value="" style="rounded=0;whiteSpace=wrap;html=1;fillColor=#99FF99;" vertex="1" parent="1">
          <mxGeometry x="170" y="240" width="10" height="40" as="geometry" />
        </mxCell>
        <mxCell id="K6WirPKTo2s7ArF09NWG-11" value="" style="rounded=0;whiteSpace=wrap;html=1;fillColor=#99FF99;" vertex="1" parent="1">
          <mxGeometry x="180" y="240" width="10" height="40" as="geometry" />
        </mxCell>
        <mxCell id="K6WirPKTo2s7ArF09NWG-12" value="" style="rounded=0;whiteSpace=wrap;html=1;fillColor=#99FF99;" vertex="1" parent="1">
          <mxGeometry x="190" y="240" width="10" height="40" as="geometry" />
        </mxCell>
        <mxCell id="K6WirPKTo2s7ArF09NWG-13" value="" style="rounded=0;whiteSpace=wrap;html=1;fillColor=#FF9999;" vertex="1" parent="1">
          <mxGeometry x="200" y="240" width="10" height="40" as="geometry" />
        </mxCell>
        <mxCell id="K6WirPKTo2s7ArF09NWG-14" value="" style="rounded=0;whiteSpace=wrap;html=1;fillColor=#FF9999;" vertex="1" parent="1">
          <mxGeometry x="210" y="240" width="10" height="40" as="geometry" />
        </mxCell>
        <mxCell id="K6WirPKTo2s7ArF09NWG-15" value="" style="rounded=0;whiteSpace=wrap;html=1;fillColor=#FF9999;" vertex="1" parent="1">
          <mxGeometry x="220" y="240" width="10" height="40" as="geometry" />
        </mxCell>
        <mxCell id="K6WirPKTo2s7ArF09NWG-16" value="" style="rounded=0;whiteSpace=wrap;html=1;fillColor=#FF9999;" vertex="1" parent="1">
          <mxGeometry x="230" y="240" width="10" height="40" as="geometry" />
        </mxCell>
        <mxCell id="K6WirPKTo2s7ArF09NWG-17" value="" style="rounded=0;whiteSpace=wrap;html=1;fillColor=#FF9999;" vertex="1" parent="1">
          <mxGeometry x="240" y="240" width="10" height="40" as="geometry" />
        </mxCell>
        <mxCell id="K6WirPKTo2s7ArF09NWG-18" value="" style="rounded=0;whiteSpace=wrap;html=1;fillColor=#FF9999;" vertex="1" parent="1">
          <mxGeometry x="250" y="240" width="10" height="40" as="geometry" />
        </mxCell>
        <mxCell id="K6WirPKTo2s7ArF09NWG-19" value="" style="rounded=0;whiteSpace=wrap;html=1;fillColor=#FF9999;" vertex="1" parent="1">
          <mxGeometry x="260" y="240" width="10" height="40" as="geometry" />
        </mxCell>
        <mxCell id="K6WirPKTo2s7ArF09NWG-20" value="" style="rounded=0;whiteSpace=wrap;html=1;fillColor=#FF9999;" vertex="1" parent="1">
          <mxGeometry x="270" y="240" width="10" height="40" as="geometry" />
        </mxCell>
        <mxCell id="K6WirPKTo2s7ArF09NWG-21" value="" style="rounded=0;whiteSpace=wrap;html=1;fillColor=#FF9999;" vertex="1" parent="1">
          <mxGeometry x="280" y="240" width="10" height="40" as="geometry" />
        </mxCell>
        <mxCell id="K6WirPKTo2s7ArF09NWG-22" value="" style="rounded=0;whiteSpace=wrap;html=1;fillColor=#FF9999;" vertex="1" parent="1">
          <mxGeometry x="290" y="240" width="10" height="40" as="geometry" />
        </mxCell>
        <mxCell id="K6WirPKTo2s7ArF09NWG-23" value="" style="rounded=0;whiteSpace=wrap;html=1;fillColor=#FF9999;" vertex="1" parent="1">
          <mxGeometry x="300" y="240" width="10" height="40" as="geometry" />
        </mxCell>
        <mxCell id="K6WirPKTo2s7ArF09NWG-24" value="" style="rounded=0;whiteSpace=wrap;html=1;fillColor=#FF9999;" vertex="1" parent="1">
          <mxGeometry x="310" y="240" width="10" height="40" as="geometry" />
        </mxCell>
        <mxCell id="K6WirPKTo2s7ArF09NWG-25" value="" style="rounded=0;whiteSpace=wrap;html=1;fillColor=#FF9999;" vertex="1" parent="1">
          <mxGeometry x="320" y="240" width="10" height="40" as="geometry" />
        </mxCell>
        <mxCell id="K6WirPKTo2s7ArF09NWG-26" value="" style="rounded=0;whiteSpace=wrap;html=1;fillColor=#FF9999;" vertex="1" parent="1">
          <mxGeometry x="330" y="240" width="10" height="40" as="geometry" />
        </mxCell>
        <mxCell id="K6WirPKTo2s7ArF09NWG-27" value="" style="rounded=0;whiteSpace=wrap;html=1;fillColor=#FF9999;" vertex="1" parent="1">
          <mxGeometry x="340" y="240" width="10" height="40" as="geometry" />
        </mxCell>
        <mxCell id="K6WirPKTo2s7ArF09NWG-28" value="" style="rounded=0;whiteSpace=wrap;html=1;fillColor=#FF9999;" vertex="1" parent="1">
          <mxGeometry x="350" y="240" width="10" height="40" as="geometry" />
        </mxCell>
        <mxCell id="K6WirPKTo2s7ArF09NWG-29" value="" style="rounded=0;whiteSpace=wrap;html=1;fillColor=#FF9999;" vertex="1" parent="1">
          <mxGeometry x="360" y="240" width="10" height="40" as="geometry" />
        </mxCell>
        <mxCell id="K6WirPKTo2s7ArF09NWG-30" value="" style="rounded=0;whiteSpace=wrap;html=1;fillColor=#FF9999;" vertex="1" parent="1">
          <mxGeometry x="370" y="240" width="10" height="40" as="geometry" />
        </mxCell>
        <mxCell id="K6WirPKTo2s7ArF09NWG-31" value="" style="rounded=0;whiteSpace=wrap;html=1;fillColor=#FF9999;" vertex="1" parent="1">
          <mxGeometry x="380" y="240" width="10" height="40" as="geometry" />
        </mxCell>
        <mxCell id="K6WirPKTo2s7ArF09NWG-32" value="" style="rounded=0;whiteSpace=wrap;html=1;fillColor=#FF9999;" vertex="1" parent="1">
          <mxGeometry x="390" y="240" width="10" height="40" as="geometry" />
        </mxCell>
        <mxCell id="K6WirPKTo2s7ArF09NWG-33" value="" style="rounded=0;whiteSpace=wrap;html=1;fillColor=#FF9999;" vertex="1" parent="1">
          <mxGeometry x="400" y="240" width="10" height="40" as="geometry" />
        </mxCell>
        <mxCell id="K6WirPKTo2s7ArF09NWG-34" value="" style="rounded=0;whiteSpace=wrap;html=1;fillColor=#FF9999;" vertex="1" parent="1">
          <mxGeometry x="410" y="240" width="10" height="40" as="geometry" />
        </mxCell>
        <mxCell id="K6WirPKTo2s7ArF09NWG-35" value="" style="rounded=0;whiteSpace=wrap;html=1;fillColor=#FF9999;" vertex="1" parent="1">
          <mxGeometry x="420" y="240" width="10" height="40" as="geometry" />
        </mxCell>
        <mxCell id="K6WirPKTo2s7ArF09NWG-36" value="" style="rounded=0;whiteSpace=wrap;html=1;fillColor=#FF9999;" vertex="1" parent="1">
          <mxGeometry x="430" y="240" width="10" height="40" as="geometry" />
        </mxCell>
        <mxCell id="K6WirPKTo2s7ArF09NWG-37" value="" style="rounded=0;whiteSpace=wrap;html=1;fillColor=#FF9999;" vertex="1" parent="1">
          <mxGeometry x="440" y="240" width="10" height="40" as="geometry" />
        </mxCell>
        <mxCell id="K6WirPKTo2s7ArF09NWG-38" value="" style="rounded=0;whiteSpace=wrap;html=1;fillColor=#FF9999;" vertex="1" parent="1">
          <mxGeometry x="450" y="240" width="10" height="40" as="geometry" />
        </mxCell>
        <mxCell id="K6WirPKTo2s7ArF09NWG-39" value="" style="rounded=0;whiteSpace=wrap;html=1;fillColor=#FF9999;" vertex="1" parent="1">
          <mxGeometry x="460" y="240" width="10" height="40" as="geometry" />
        </mxCell>
        <mxCell id="K6WirPKTo2s7ArF09NWG-40" value="" style="rounded=0;whiteSpace=wrap;html=1;fillColor=#FF9999;" vertex="1" parent="1">
          <mxGeometry x="470" y="240" width="10" height="40" as="geometry" />
        </mxCell>
        <mxCell id="K6WirPKTo2s7ArF09NWG-41" value="" style="rounded=0;whiteSpace=wrap;html=1;fillColor=#FF9999;" vertex="1" parent="1">
          <mxGeometry x="480" y="240" width="10" height="40" as="geometry" />
        </mxCell>
        <mxCell id="K6WirPKTo2s7ArF09NWG-42" value="" style="rounded=0;whiteSpace=wrap;html=1;fillColor=#FF9999;" vertex="1" parent="1">
          <mxGeometry x="490" y="240" width="10" height="40" as="geometry" />
        </mxCell>
        <mxCell id="K6WirPKTo2s7ArF09NWG-43" value="" style="rounded=0;whiteSpace=wrap;html=1;fillColor=#FF9999;" vertex="1" parent="1">
          <mxGeometry x="500" y="240" width="10" height="40" as="geometry" />
        </mxCell>
        <mxCell id="K6WirPKTo2s7ArF09NWG-44" value="" style="rounded=0;whiteSpace=wrap;html=1;fillColor=#FF9999;" vertex="1" parent="1">
          <mxGeometry x="510" y="240" width="10" height="40" as="geometry" />
        </mxCell>
        <mxCell id="K6WirPKTo2s7ArF09NWG-45" value="" style="rounded=0;whiteSpace=wrap;html=1;fillColor=#FF9999;" vertex="1" parent="1">
          <mxGeometry x="520" y="240" width="10" height="40" as="geometry" />
        </mxCell>
        <mxCell id="K6WirPKTo2s7ArF09NWG-46" value="" style="rounded=0;whiteSpace=wrap;html=1;fillColor=#FF9999;" vertex="1" parent="1">
          <mxGeometry x="530" y="240" width="10" height="40" as="geometry" />
        </mxCell>
        <mxCell id="K6WirPKTo2s7ArF09NWG-47" value="" style="rounded=0;whiteSpace=wrap;html=1;fillColor=#FF9999;" vertex="1" parent="1">
          <mxGeometry x="540" y="240" width="10" height="40" as="geometry" />
        </mxCell>
        <mxCell id="K6WirPKTo2s7ArF09NWG-48" value="" style="rounded=0;whiteSpace=wrap;html=1;fillColor=#FF9999;" vertex="1" parent="1">
          <mxGeometry x="550" y="240" width="10" height="40" as="geometry" />
        </mxCell>
        <mxCell id="K6WirPKTo2s7ArF09NWG-49" value="" style="rounded=0;whiteSpace=wrap;html=1;fillColor=#FF9999;" vertex="1" parent="1">
          <mxGeometry x="560" y="240" width="10" height="40" as="geometry" />
        </mxCell>
        <mxCell id="K6WirPKTo2s7ArF09NWG-50" value="" style="rounded=0;whiteSpace=wrap;html=1;fillColor=#FF9999;" vertex="1" parent="1">
          <mxGeometry x="570" y="240" width="10" height="40" as="geometry" />
        </mxCell>
        <mxCell id="K6WirPKTo2s7ArF09NWG-51" value="" style="rounded=0;whiteSpace=wrap;html=1;fillColor=#FF9999;" vertex="1" parent="1">
          <mxGeometry x="580" y="240" width="10" height="40" as="geometry" />
        </mxCell>
        <mxCell id="K6WirPKTo2s7ArF09NWG-52" value="" style="rounded=0;whiteSpace=wrap;html=1;fillColor=#FF9999;" vertex="1" parent="1">
          <mxGeometry x="590" y="240" width="10" height="40" as="geometry" />
        </mxCell>
        <mxCell id="K6WirPKTo2s7ArF09NWG-53" value="" style="rounded=0;whiteSpace=wrap;html=1;fillColor=#FF9999;" vertex="1" parent="1">
          <mxGeometry x="600" y="240" width="10" height="40" as="geometry" />
        </mxCell>
        <mxCell id="K6WirPKTo2s7ArF09NWG-54" value="" style="rounded=0;whiteSpace=wrap;html=1;fillColor=#FF9999;" vertex="1" parent="1">
          <mxGeometry x="610" y="240" width="10" height="40" as="geometry" />
        </mxCell>
        <mxCell id="K6WirPKTo2s7ArF09NWG-55" value="" style="rounded=0;whiteSpace=wrap;html=1;fillColor=#FF9999;" vertex="1" parent="1">
          <mxGeometry x="620" y="240" width="10" height="40" as="geometry" />
        </mxCell>
        <mxCell id="K6WirPKTo2s7ArF09NWG-56" value="" style="rounded=0;whiteSpace=wrap;html=1;fillColor=#FF9999;" vertex="1" parent="1">
          <mxGeometry x="630" y="240" width="10" height="40" as="geometry" />
        </mxCell>
        <mxCell id="K6WirPKTo2s7ArF09NWG-57" value="" style="rounded=0;whiteSpace=wrap;html=1;fillColor=#FF9999;" vertex="1" parent="1">
          <mxGeometry x="640" y="240" width="10" height="40" as="geometry" />
        </mxCell>
        <mxCell id="K6WirPKTo2s7ArF09NWG-58" value="" style="rounded=0;whiteSpace=wrap;html=1;fillColor=#FF9999;" vertex="1" parent="1">
          <mxGeometry x="650" y="240" width="10" height="40" as="geometry" />
        </mxCell>
        <mxCell id="K6WirPKTo2s7ArF09NWG-59" value="" style="rounded=0;whiteSpace=wrap;html=1;fillColor=#FF9999;" vertex="1" parent="1">
          <mxGeometry x="660" y="240" width="10" height="40" as="geometry" />
        </mxCell>
        <mxCell id="K6WirPKTo2s7ArF09NWG-60" value="" style="rounded=0;whiteSpace=wrap;html=1;fillColor=#FF9999;" vertex="1" parent="1">
          <mxGeometry x="670" y="240" width="10" height="40" as="geometry" />
        </mxCell>
        <mxCell id="K6WirPKTo2s7ArF09NWG-61" value="" style="rounded=0;whiteSpace=wrap;html=1;fillColor=#FF9999;" vertex="1" parent="1">
          <mxGeometry x="680" y="240" width="10" height="40" as="geometry" />
        </mxCell>
        <mxCell id="K6WirPKTo2s7ArF09NWG-62" value="" style="rounded=0;whiteSpace=wrap;html=1;fillColor=#FF9999;" vertex="1" parent="1">
          <mxGeometry x="690" y="240" width="10" height="40" as="geometry" />
        </mxCell>
        <mxCell id="K6WirPKTo2s7ArF09NWG-63" value="" style="rounded=0;whiteSpace=wrap;html=1;fillColor=#FF9999;" vertex="1" parent="1">
          <mxGeometry x="700" y="240" width="10" height="40" as="geometry" />
        </mxCell>
        <mxCell id="K6WirPKTo2s7ArF09NWG-64" value="" style="rounded=0;whiteSpace=wrap;html=1;fillColor=#FF9999;" vertex="1" parent="1">
          <mxGeometry x="710" y="240" width="10" height="40" as="geometry" />
        </mxCell>
        <mxCell id="JD2NolS5lACzbTXeH8Wx-1" value="&lt;font style=&quot;font-size: 12px;&quot;&gt;sign bit&lt;/font&gt;" style="text;html=1;align=center;verticalAlign=middle;whiteSpace=wrap;rounded=0;" vertex="1" parent="1">
          <mxGeometry x="51" y="212" width="44.33" height="10" as="geometry" />
        </mxCell>
        <mxCell id="JD2NolS5lACzbTXeH8Wx-2" value="" style="endArrow=none;html=1;rounded=0;exitX=0.5;exitY=0;exitDx=0;exitDy=0;" edge="1" parent="1">
          <mxGeometry width="50" height="50" relative="1" as="geometry">
            <mxPoint x="85.33000000000001" y="236" as="sourcePoint" />
            <mxPoint x="85.33000000000001" y="226" as="targetPoint" />
          </mxGeometry>
        </mxCell>
        <mxCell id="JD2NolS5lACzbTXeH8Wx-3" value="" style="endArrow=none;html=1;rounded=0;" edge="1" parent="1">
          <mxGeometry width="50" height="50" relative="1" as="geometry">
            <mxPoint x="95.26000000000002" y="226" as="sourcePoint" />
            <mxPoint x="95.26000000000002" y="236" as="targetPoint" />
          </mxGeometry>
        </mxCell>
        <mxCell id="JD2NolS5lACzbTXeH8Wx-4" value="" style="endArrow=none;html=1;rounded=0;" edge="1" parent="1">
          <mxGeometry width="50" height="50" relative="1" as="geometry">
            <mxPoint x="95.00000000000001" y="226" as="sourcePoint" />
            <mxPoint x="195" y="226" as="targetPoint" />
          </mxGeometry>
        </mxCell>
        <mxCell id="JD2NolS5lACzbTXeH8Wx-5" value="" style="endArrow=none;html=1;rounded=0;" edge="1" parent="1">
          <mxGeometry width="50" height="50" relative="1" as="geometry">
            <mxPoint x="195.26000000000002" y="226" as="sourcePoint" />
            <mxPoint x="195.26000000000002" y="236" as="targetPoint" />
          </mxGeometry>
        </mxCell>
        <mxCell id="JD2NolS5lACzbTXeH8Wx-6" value="&lt;font style=&quot;font-size: 12px;&quot;&gt;exponent (11 bits)&lt;/font&gt;" style="text;html=1;align=center;verticalAlign=middle;whiteSpace=wrap;rounded=0;" vertex="1" parent="1">
          <mxGeometry x="95" y="212" width="104.83" height="10" as="geometry" />
        </mxCell>
        <mxCell id="JD2NolS5lACzbTXeH8Wx-7" value="" style="endArrow=none;html=1;rounded=0;" edge="1" parent="1">
          <mxGeometry width="50" height="50" relative="1" as="geometry">
            <mxPoint x="205.26000000000002" y="226" as="sourcePoint" />
            <mxPoint x="205.26000000000002" y="236" as="targetPoint" />
          </mxGeometry>
        </mxCell>
        <mxCell id="JD2NolS5lACzbTXeH8Wx-8" value="" style="endArrow=none;html=1;rounded=0;" edge="1" parent="1">
          <mxGeometry width="50" height="50" relative="1" as="geometry">
            <mxPoint x="205" y="225.72" as="sourcePoint" />
            <mxPoint x="715" y="224" as="targetPoint" />
          </mxGeometry>
        </mxCell>
        <mxCell id="JD2NolS5lACzbTXeH8Wx-9" value="" style="endArrow=none;html=1;rounded=0;" edge="1" parent="1">
          <mxGeometry width="50" height="50" relative="1" as="geometry">
            <mxPoint x="714.93" y="224" as="sourcePoint" />
            <mxPoint x="714.93" y="234" as="targetPoint" />
          </mxGeometry>
        </mxCell>
        <mxCell id="JD2NolS5lACzbTXeH8Wx-10" value="&lt;font style=&quot;font-size: 12px;&quot;&gt;fraction (52 bits)&lt;/font&gt;" style="text;html=1;align=center;verticalAlign=middle;whiteSpace=wrap;rounded=0;" vertex="1" parent="1">
          <mxGeometry x="380" y="212" width="110" height="10" as="geometry" />
        </mxCell>
        <mxCell id="EDKALTnx_c5hMXA60AF6-1" value="" style="ellipse;whiteSpace=wrap;html=1;fillColor=#CCCCCC;" vertex="1" parent="1">
          <mxGeometry x="713" y="283" width="5" height="5" as="geometry" />
        </mxCell>
        <mxCell id="EDKALTnx_c5hMXA60AF6-2" value="&lt;font style=&quot;font-size: 10px;&quot;&gt;$$b_0$$&lt;/font&gt;" style="text;html=1;align=center;verticalAlign=middle;whiteSpace=wrap;rounded=0;" vertex="1" parent="1">
          <mxGeometry x="713" y="292" width="5" height="10" as="geometry" />
        </mxCell>
        <mxCell id="EDKALTnx_c5hMXA60AF6-3" value="" style="ellipse;whiteSpace=wrap;html=1;fillColor=#CCCCCC;" vertex="1" parent="1">
          <mxGeometry x="192.83" y="283" width="5" height="5" as="geometry" />
        </mxCell>
        <mxCell id="EDKALTnx_c5hMXA60AF6-4" value="&lt;font style=&quot;font-size: 10px;&quot;&gt;$$b_{52}$$&lt;/font&gt;" style="text;html=1;align=center;verticalAlign=middle;whiteSpace=wrap;rounded=0;" vertex="1" parent="1">
          <mxGeometry x="194.83" y="292" width="5" height="10" as="geometry" />
        </mxCell>
        <mxCell id="EDKALTnx_c5hMXA60AF6-6" value="" style="ellipse;whiteSpace=wrap;html=1;fillColor=#CCCCCC;" vertex="1" parent="1">
          <mxGeometry x="81.50000000000001" y="283" width="5" height="5" as="geometry" />
        </mxCell>
        <mxCell id="EDKALTnx_c5hMXA60AF6-7" value="&lt;font style=&quot;font-size: 10px;&quot;&gt;$$b_{63}$$&lt;/font&gt;" style="text;html=1;align=center;verticalAlign=middle;whiteSpace=wrap;rounded=0;" vertex="1" parent="1">
          <mxGeometry x="83.50000000000001" y="292" width="5" height="10" as="geometry" />
        </mxCell>
        <mxCell id="U0VZxNTWMcELDdVYlnJO-1" value="$$x =(-1)^{b_{63}}\times \left[1+\sum_{i=0}^{51}2^{-i}b_{51-i}\right]\times 2^{e-1023} \qquad \text{with} \qquad&amp;nbsp; &amp;nbsp; &amp;nbsp;e=\sum_{i=52}^{62} 2^ib_i$$" style="text;html=1;align=center;verticalAlign=middle;whiteSpace=wrap;rounded=0;" vertex="1" parent="1">
          <mxGeometry x="190" y="299" width="420" height="60" as="geometry" />
        </mxCell>
      </root>
    </mxGraphModel>
  </diagram>
  <diagram id="t9fcOqs7TIE7WyP8GXMw" name="array">
    <mxGraphModel dx="1050" dy="629" grid="1" gridSize="10" guides="1" tooltips="1" connect="1" arrows="1" fold="1" page="1" pageScale="1" pageWidth="850" pageHeight="1100" math="1" shadow="0">
      <root>
        <mxCell id="0" />
        <mxCell id="1" parent="0" />
        <mxCell id="kVchIHoGGXCVALo9fSDZ-14" value="" style="shape=table;startSize=0;container=1;collapsible=0;childLayout=tableLayout;fontSize=16;" parent="1" vertex="1">
          <mxGeometry x="80" y="480" width="280" height="150" as="geometry" />
        </mxCell>
        <mxCell id="kVchIHoGGXCVALo9fSDZ-15" value="" style="shape=tableRow;horizontal=0;startSize=0;swimlaneHead=0;swimlaneBody=0;strokeColor=inherit;top=0;left=0;bottom=0;right=0;collapsible=0;dropTarget=0;fillColor=none;points=[[0,0.5],[1,0.5]];portConstraint=eastwest;fontSize=16;" parent="kVchIHoGGXCVALo9fSDZ-14" vertex="1">
          <mxGeometry width="280" height="38" as="geometry" />
        </mxCell>
        <mxCell id="kVchIHoGGXCVALo9fSDZ-16" value="121" style="shape=partialRectangle;html=1;whiteSpace=wrap;connectable=0;strokeColor=inherit;overflow=hidden;fillColor=none;top=0;left=0;bottom=0;right=0;pointerEvents=1;fontSize=16;" parent="kVchIHoGGXCVALo9fSDZ-15" vertex="1">
          <mxGeometry width="40" height="38" as="geometry">
            <mxRectangle width="40" height="38" as="alternateBounds" />
          </mxGeometry>
        </mxCell>
        <mxCell id="kVchIHoGGXCVALo9fSDZ-17" value="/" style="shape=partialRectangle;html=1;whiteSpace=wrap;connectable=0;strokeColor=inherit;overflow=hidden;fillColor=none;top=0;left=0;bottom=0;right=0;pointerEvents=1;fontSize=16;" parent="kVchIHoGGXCVALo9fSDZ-15" vertex="1">
          <mxGeometry x="40" width="240" height="38" as="geometry">
            <mxRectangle width="240" height="38" as="alternateBounds" />
          </mxGeometry>
        </mxCell>
        <mxCell id="kVchIHoGGXCVALo9fSDZ-27" value="" style="shape=tableRow;horizontal=0;startSize=0;swimlaneHead=0;swimlaneBody=0;strokeColor=inherit;top=0;left=0;bottom=0;right=0;collapsible=0;dropTarget=0;fillColor=none;points=[[0,0.5],[1,0.5]];portConstraint=eastwest;fontSize=16;" parent="kVchIHoGGXCVALo9fSDZ-14" vertex="1">
          <mxGeometry y="38" width="280" height="37" as="geometry" />
        </mxCell>
        <mxCell id="kVchIHoGGXCVALo9fSDZ-28" value="122" style="shape=partialRectangle;html=1;whiteSpace=wrap;connectable=0;strokeColor=inherit;overflow=hidden;fillColor=none;top=0;left=0;bottom=0;right=0;pointerEvents=1;fontSize=16;" parent="kVchIHoGGXCVALo9fSDZ-27" vertex="1">
          <mxGeometry width="40" height="37" as="geometry">
            <mxRectangle width="40" height="37" as="alternateBounds" />
          </mxGeometry>
        </mxCell>
        <mxCell id="kVchIHoGGXCVALo9fSDZ-29" value="&lt;font style=&quot;font-size: 14px;&quot;&gt;1&amp;nbsp;&lt;/font&gt;&lt;div style=&quot;line-height: 80%;&quot;&gt;&lt;font style=&quot;font-size: 14px;&quot;&gt;&lt;font style=&quot;font-size: 14px;&quot; color=&quot;#ff0000&quot;&gt;(1st element)&lt;/font&gt;&lt;/font&gt;&lt;/div&gt;" style="shape=partialRectangle;html=1;whiteSpace=wrap;connectable=0;strokeColor=inherit;overflow=hidden;fillColor=none;top=0;left=0;bottom=0;right=0;pointerEvents=1;fontSize=16;align=center;" parent="kVchIHoGGXCVALo9fSDZ-27" vertex="1">
          <mxGeometry x="40" width="240" height="37" as="geometry">
            <mxRectangle width="240" height="37" as="alternateBounds" />
          </mxGeometry>
        </mxCell>
        <mxCell id="kVchIHoGGXCVALo9fSDZ-19" value="" style="shape=tableRow;horizontal=0;startSize=0;swimlaneHead=0;swimlaneBody=0;strokeColor=inherit;top=0;left=0;bottom=0;right=0;collapsible=0;dropTarget=0;fillColor=none;points=[[0,0.5],[1,0.5]];portConstraint=eastwest;fontSize=16;" parent="kVchIHoGGXCVALo9fSDZ-14" vertex="1">
          <mxGeometry y="75" width="280" height="38" as="geometry" />
        </mxCell>
        <mxCell id="kVchIHoGGXCVALo9fSDZ-20" value="123" style="shape=partialRectangle;html=1;whiteSpace=wrap;connectable=0;strokeColor=inherit;overflow=hidden;fillColor=none;top=0;left=0;bottom=0;right=0;pointerEvents=1;fontSize=16;" parent="kVchIHoGGXCVALo9fSDZ-19" vertex="1">
          <mxGeometry width="40" height="38" as="geometry">
            <mxRectangle width="40" height="38" as="alternateBounds" />
          </mxGeometry>
        </mxCell>
        <mxCell id="kVchIHoGGXCVALo9fSDZ-21" value="&lt;font style=&quot;font-size: 14px;&quot;&gt;4&amp;nbsp;&lt;/font&gt;&lt;div style=&quot;line-height: 80%;&quot;&gt;&lt;font style=&quot;font-size: 14px;&quot;&gt;&lt;font style=&quot;font-size: 14px;&quot; color=&quot;#ff0000&quot;&gt;(2nd element)&lt;/font&gt;&lt;/font&gt;&lt;/div&gt;" style="shape=partialRectangle;html=1;whiteSpace=wrap;connectable=0;strokeColor=inherit;overflow=hidden;fillColor=none;top=0;left=0;bottom=0;right=0;pointerEvents=1;fontSize=16;" parent="kVchIHoGGXCVALo9fSDZ-19" vertex="1">
          <mxGeometry x="40" width="240" height="38" as="geometry">
            <mxRectangle width="240" height="38" as="alternateBounds" />
          </mxGeometry>
        </mxCell>
        <mxCell id="kVchIHoGGXCVALo9fSDZ-23" value="" style="shape=tableRow;horizontal=0;startSize=0;swimlaneHead=0;swimlaneBody=0;strokeColor=inherit;top=0;left=0;bottom=0;right=0;collapsible=0;dropTarget=0;fillColor=none;points=[[0,0.5],[1,0.5]];portConstraint=eastwest;fontSize=16;" parent="kVchIHoGGXCVALo9fSDZ-14" vertex="1">
          <mxGeometry y="113" width="280" height="37" as="geometry" />
        </mxCell>
        <mxCell id="kVchIHoGGXCVALo9fSDZ-24" value="124" style="shape=partialRectangle;html=1;whiteSpace=wrap;connectable=0;strokeColor=inherit;overflow=hidden;fillColor=none;top=0;left=0;bottom=0;right=0;pointerEvents=1;fontSize=16;" parent="kVchIHoGGXCVALo9fSDZ-23" vertex="1">
          <mxGeometry width="40" height="37" as="geometry">
            <mxRectangle width="40" height="37" as="alternateBounds" />
          </mxGeometry>
        </mxCell>
        <mxCell id="kVchIHoGGXCVALo9fSDZ-25" value="&lt;font style=&quot;font-size: 14px;&quot;&gt;9&amp;nbsp;&lt;/font&gt;&lt;div style=&quot;line-height: 80%;&quot;&gt;&lt;font style=&quot;font-size: 14px;&quot;&gt;&lt;font style=&quot;font-size: 14px;&quot; color=&quot;#ff0000&quot;&gt;(3rd element)&lt;/font&gt;&lt;/font&gt;&lt;/div&gt;" style="shape=partialRectangle;html=1;whiteSpace=wrap;connectable=0;strokeColor=inherit;overflow=hidden;fillColor=none;top=0;left=0;bottom=0;right=0;pointerEvents=1;fontSize=16;" parent="kVchIHoGGXCVALo9fSDZ-23" vertex="1">
          <mxGeometry x="40" width="240" height="37" as="geometry">
            <mxRectangle width="240" height="37" as="alternateBounds" />
          </mxGeometry>
        </mxCell>
        <mxCell id="CkbFn-pEXVaakXnShvqJ-7" value="&lt;font style=&quot;font-size: 16px;&quot;&gt;Memory address&lt;/font&gt;" style="text;html=1;align=center;verticalAlign=middle;whiteSpace=wrap;rounded=0;" parent="1" vertex="1">
          <mxGeometry x="70" y="290" width="60" height="30" as="geometry" />
        </mxCell>
        <mxCell id="CkbFn-pEXVaakXnShvqJ-8" value="&lt;font style=&quot;font-size: 16px;&quot;&gt;Stored value&lt;/font&gt;" style="text;html=1;align=center;verticalAlign=middle;whiteSpace=wrap;rounded=0;" parent="1" vertex="1">
          <mxGeometry x="185" y="290" width="110" height="30" as="geometry" />
        </mxCell>
        <mxCell id="CkbFn-pEXVaakXnShvqJ-9" value="" style="shape=table;startSize=0;container=1;collapsible=0;childLayout=tableLayout;fontSize=16;labelBackgroundColor=default;" parent="1" vertex="1">
          <mxGeometry x="80" y="325" width="280" height="130" as="geometry" />
        </mxCell>
        <mxCell id="CkbFn-pEXVaakXnShvqJ-10" value="" style="shape=tableRow;horizontal=0;startSize=0;swimlaneHead=0;swimlaneBody=0;strokeColor=inherit;top=0;left=0;bottom=0;right=0;collapsible=0;dropTarget=0;fillColor=none;points=[[0,0.5],[1,0.5]];portConstraint=eastwest;fontSize=16;" parent="CkbFn-pEXVaakXnShvqJ-9" vertex="1">
          <mxGeometry width="280" height="42" as="geometry" />
        </mxCell>
        <mxCell id="CkbFn-pEXVaakXnShvqJ-11" value="18" style="shape=partialRectangle;html=1;whiteSpace=wrap;connectable=0;strokeColor=inherit;overflow=hidden;fillColor=none;top=0;left=0;bottom=0;right=0;pointerEvents=1;fontSize=16;" parent="CkbFn-pEXVaakXnShvqJ-10" vertex="1">
          <mxGeometry width="40" height="42" as="geometry">
            <mxRectangle width="40" height="42" as="alternateBounds" />
          </mxGeometry>
        </mxCell>
        <mxCell id="CkbFn-pEXVaakXnShvqJ-12" value="/" style="shape=partialRectangle;html=1;whiteSpace=wrap;connectable=0;strokeColor=inherit;overflow=hidden;fillColor=none;top=0;left=0;bottom=0;right=0;pointerEvents=1;fontSize=16;" parent="CkbFn-pEXVaakXnShvqJ-10" vertex="1">
          <mxGeometry x="40" width="240" height="42" as="geometry">
            <mxRectangle width="240" height="42" as="alternateBounds" />
          </mxGeometry>
        </mxCell>
        <mxCell id="CkbFn-pEXVaakXnShvqJ-13" value="" style="shape=tableRow;horizontal=0;startSize=0;swimlaneHead=0;swimlaneBody=0;strokeColor=inherit;top=0;left=0;bottom=0;right=0;collapsible=0;dropTarget=0;fillColor=none;points=[[0,0.5],[1,0.5]];portConstraint=eastwest;fontSize=16;" parent="CkbFn-pEXVaakXnShvqJ-9" vertex="1">
          <mxGeometry y="42" width="280" height="43" as="geometry" />
        </mxCell>
        <mxCell id="CkbFn-pEXVaakXnShvqJ-14" value="19" style="shape=partialRectangle;html=1;whiteSpace=wrap;connectable=0;strokeColor=inherit;overflow=hidden;fillColor=none;top=0;left=0;bottom=0;right=0;pointerEvents=1;fontSize=16;" parent="CkbFn-pEXVaakXnShvqJ-13" vertex="1">
          <mxGeometry width="40" height="43" as="geometry">
            <mxRectangle width="40" height="43" as="alternateBounds" />
          </mxGeometry>
        </mxCell>
        <mxCell id="CkbFn-pEXVaakXnShvqJ-15" value="&lt;font style=&quot;font-size: 14px;&quot;&gt;122&amp;nbsp;&lt;/font&gt;&lt;div style=&quot;line-height: 80%;&quot;&gt;&lt;font style=&quot;font-size: 14px;&quot;&gt;&lt;font style=&quot;font-size: 14px;&quot; color=&quot;#ff0000&quot;&gt;(address of the 1st element)&lt;/font&gt;&lt;/font&gt;&lt;/div&gt;" style="shape=partialRectangle;html=1;whiteSpace=wrap;connectable=0;strokeColor=inherit;overflow=hidden;fillColor=none;top=0;left=0;bottom=0;right=0;pointerEvents=1;fontSize=16;" parent="CkbFn-pEXVaakXnShvqJ-13" vertex="1">
          <mxGeometry x="40" width="240" height="43" as="geometry">
            <mxRectangle width="240" height="43" as="alternateBounds" />
          </mxGeometry>
        </mxCell>
        <mxCell id="CkbFn-pEXVaakXnShvqJ-19" value="" style="shape=tableRow;horizontal=0;startSize=0;swimlaneHead=0;swimlaneBody=0;strokeColor=inherit;top=0;left=0;bottom=0;right=0;collapsible=0;dropTarget=0;fillColor=none;points=[[0,0.5],[1,0.5]];portConstraint=eastwest;fontSize=16;" parent="CkbFn-pEXVaakXnShvqJ-9" vertex="1">
          <mxGeometry y="85" width="280" height="45" as="geometry" />
        </mxCell>
        <mxCell id="CkbFn-pEXVaakXnShvqJ-20" value="20" style="shape=partialRectangle;html=1;whiteSpace=wrap;connectable=0;strokeColor=inherit;overflow=hidden;fillColor=none;top=0;left=0;bottom=0;right=0;pointerEvents=1;fontSize=16;" parent="CkbFn-pEXVaakXnShvqJ-19" vertex="1">
          <mxGeometry width="40" height="45" as="geometry">
            <mxRectangle width="40" height="45" as="alternateBounds" />
          </mxGeometry>
        </mxCell>
        <mxCell id="CkbFn-pEXVaakXnShvqJ-21" value="&lt;font style=&quot;font-size: 14px;&quot;&gt;array[25]&lt;/font&gt;&lt;div style=&quot;font-size: 14px; line-height: 120%;&quot;&gt;&lt;font color=&quot;#ff0000&quot; style=&quot;font-size: 14px;&quot;&gt;(this data is an array with length=25)&lt;/font&gt;&lt;/div&gt;" style="shape=partialRectangle;html=1;whiteSpace=wrap;connectable=0;strokeColor=inherit;overflow=hidden;fillColor=none;top=0;left=0;bottom=0;right=0;pointerEvents=1;fontSize=16;spacingBottom=5;" parent="CkbFn-pEXVaakXnShvqJ-19" vertex="1">
          <mxGeometry x="40" width="240" height="45" as="geometry">
            <mxRectangle width="240" height="45" as="alternateBounds" />
          </mxGeometry>
        </mxCell>
        <mxCell id="CkbFn-pEXVaakXnShvqJ-22" value="&lt;font style=&quot;font-size: 16px;&quot;&gt;$$\vdots$$&lt;/font&gt;" style="text;html=1;align=center;verticalAlign=middle;whiteSpace=wrap;rounded=0;" parent="1" vertex="1">
          <mxGeometry x="70" y="450" width="60" height="30" as="geometry" />
        </mxCell>
        <mxCell id="CkbFn-pEXVaakXnShvqJ-23" value="&lt;font style=&quot;font-size: 16px;&quot;&gt;$$\vdots$$&lt;/font&gt;" style="text;html=1;align=center;verticalAlign=middle;whiteSpace=wrap;rounded=0;" parent="1" vertex="1">
          <mxGeometry x="70" y="630" width="60" height="30" as="geometry" />
        </mxCell>
        <mxCell id="CkbFn-pEXVaakXnShvqJ-24" value="" style="shape=table;startSize=0;container=1;collapsible=0;childLayout=tableLayout;fontSize=16;" parent="1" vertex="1">
          <mxGeometry x="80" y="660" width="280" height="110" as="geometry" />
        </mxCell>
        <mxCell id="CkbFn-pEXVaakXnShvqJ-25" value="" style="shape=tableRow;horizontal=0;startSize=0;swimlaneHead=0;swimlaneBody=0;strokeColor=inherit;top=0;left=0;bottom=0;right=0;collapsible=0;dropTarget=0;fillColor=none;points=[[0,0.5],[1,0.5]];portConstraint=eastwest;fontSize=16;" parent="CkbFn-pEXVaakXnShvqJ-24" vertex="1">
          <mxGeometry width="280" height="37" as="geometry" />
        </mxCell>
        <mxCell id="CkbFn-pEXVaakXnShvqJ-26" value="145" style="shape=partialRectangle;html=1;whiteSpace=wrap;connectable=0;strokeColor=inherit;overflow=hidden;fillColor=none;top=0;left=0;bottom=0;right=0;pointerEvents=1;fontSize=16;" parent="CkbFn-pEXVaakXnShvqJ-25" vertex="1">
          <mxGeometry width="40" height="37" as="geometry">
            <mxRectangle width="40" height="37" as="alternateBounds" />
          </mxGeometry>
        </mxCell>
        <mxCell id="CkbFn-pEXVaakXnShvqJ-27" value="&lt;font style=&quot;font-size: 14px;&quot;&gt;576&amp;nbsp;&lt;/font&gt;&lt;div style=&quot;line-height: 80%;&quot;&gt;&lt;font style=&quot;font-size: 14px;&quot;&gt;&lt;font style=&quot;font-size: 14px;&quot; color=&quot;#ff0000&quot;&gt;(2nd last element)&lt;/font&gt;&lt;/font&gt;&lt;/div&gt;" style="shape=partialRectangle;html=1;whiteSpace=wrap;connectable=0;strokeColor=inherit;overflow=hidden;fillColor=none;top=0;left=0;bottom=0;right=0;pointerEvents=1;fontSize=16;" parent="CkbFn-pEXVaakXnShvqJ-25" vertex="1">
          <mxGeometry x="40" width="240" height="37" as="geometry">
            <mxRectangle width="240" height="37" as="alternateBounds" />
          </mxGeometry>
        </mxCell>
        <mxCell id="CkbFn-pEXVaakXnShvqJ-28" value="" style="shape=tableRow;horizontal=0;startSize=0;swimlaneHead=0;swimlaneBody=0;strokeColor=inherit;top=0;left=0;bottom=0;right=0;collapsible=0;dropTarget=0;fillColor=none;points=[[0,0.5],[1,0.5]];portConstraint=eastwest;fontSize=16;" parent="CkbFn-pEXVaakXnShvqJ-24" vertex="1">
          <mxGeometry y="37" width="280" height="36" as="geometry" />
        </mxCell>
        <mxCell id="CkbFn-pEXVaakXnShvqJ-29" value="146" style="shape=partialRectangle;html=1;whiteSpace=wrap;connectable=0;strokeColor=inherit;overflow=hidden;fillColor=none;top=0;left=0;bottom=0;right=0;pointerEvents=1;fontSize=16;" parent="CkbFn-pEXVaakXnShvqJ-28" vertex="1">
          <mxGeometry width="40" height="36" as="geometry">
            <mxRectangle width="40" height="36" as="alternateBounds" />
          </mxGeometry>
        </mxCell>
        <mxCell id="CkbFn-pEXVaakXnShvqJ-30" value="&lt;font style=&quot;font-size: 14px;&quot;&gt;625&amp;nbsp;&lt;/font&gt;&lt;div style=&quot;line-height: 80%;&quot;&gt;&lt;font style=&quot;font-size: 14px;&quot;&gt;&lt;font style=&quot;font-size: 14px;&quot; color=&quot;#ff0000&quot;&gt;(last element)&lt;/font&gt;&lt;/font&gt;&lt;/div&gt;" style="shape=partialRectangle;html=1;whiteSpace=wrap;connectable=0;strokeColor=inherit;overflow=hidden;fillColor=none;top=0;left=0;bottom=0;right=0;pointerEvents=1;fontSize=16;" parent="CkbFn-pEXVaakXnShvqJ-28" vertex="1">
          <mxGeometry x="40" width="240" height="36" as="geometry">
            <mxRectangle width="240" height="36" as="alternateBounds" />
          </mxGeometry>
        </mxCell>
        <mxCell id="CkbFn-pEXVaakXnShvqJ-31" value="" style="shape=tableRow;horizontal=0;startSize=0;swimlaneHead=0;swimlaneBody=0;strokeColor=inherit;top=0;left=0;bottom=0;right=0;collapsible=0;dropTarget=0;fillColor=none;points=[[0,0.5],[1,0.5]];portConstraint=eastwest;fontSize=16;" parent="CkbFn-pEXVaakXnShvqJ-24" vertex="1">
          <mxGeometry y="73" width="280" height="37" as="geometry" />
        </mxCell>
        <mxCell id="CkbFn-pEXVaakXnShvqJ-32" value="147" style="shape=partialRectangle;html=1;whiteSpace=wrap;connectable=0;strokeColor=inherit;overflow=hidden;fillColor=none;top=0;left=0;bottom=0;right=0;pointerEvents=1;fontSize=16;" parent="CkbFn-pEXVaakXnShvqJ-31" vertex="1">
          <mxGeometry width="40" height="37" as="geometry">
            <mxRectangle width="40" height="37" as="alternateBounds" />
          </mxGeometry>
        </mxCell>
        <mxCell id="CkbFn-pEXVaakXnShvqJ-33" value="/" style="shape=partialRectangle;html=1;whiteSpace=wrap;connectable=0;strokeColor=inherit;overflow=hidden;fillColor=none;top=0;left=0;bottom=0;right=0;pointerEvents=1;fontSize=16;" parent="CkbFn-pEXVaakXnShvqJ-31" vertex="1">
          <mxGeometry x="40" width="240" height="37" as="geometry">
            <mxRectangle width="240" height="37" as="alternateBounds" />
          </mxGeometry>
        </mxCell>
        <mxCell id="CkbFn-pEXVaakXnShvqJ-37" value="&lt;div&gt;&lt;span style=&quot;font-size: 20px;&quot;&gt;&lt;b&gt;E.g. The stored array:&lt;/b&gt;&lt;/span&gt;&lt;/div&gt;&lt;font style=&quot;font-size: 20px;&quot;&gt;&lt;b&gt;arr = [1,4,9,16,25,...,576,625]&lt;br&gt;(contain squares of 1 to 25)&lt;/b&gt;&lt;/font&gt;" style="text;html=1;align=center;verticalAlign=middle;whiteSpace=wrap;rounded=0;" parent="1" vertex="1">
          <mxGeometry x="380" y="335" width="370" height="110" as="geometry" />
        </mxCell>
        <mxCell id="CkbFn-pEXVaakXnShvqJ-38" value="&lt;font style=&quot;font-size: 18px;&quot;&gt;&lt;u&gt;Example situation:&lt;/u&gt;&lt;/font&gt;&lt;div style=&quot;font-size: 18px; line-height: 150%;&quot;&gt;&lt;font style=&quot;font-size: 18px;&quot;&gt;1. Program asks: what is &lt;i&gt;arr[10]?&lt;/i&gt;&lt;/font&gt;&lt;/div&gt;&lt;div style=&quot;font-size: 18px; line-height: 150%;&quot;&gt;&lt;font style=&quot;font-size: 18px;&quot;&gt;2. System replies: &lt;i&gt;arr&lt;/i&gt; is at address 19 and 20&lt;/font&gt;&lt;/div&gt;&lt;div style=&quot;font-size: 18px; line-height: 150%;&quot;&gt;&lt;font style=&quot;font-size: 18px;&quot;&gt;3. Program finds that&amp;nbsp;&lt;i&gt;arr&lt;/i&gt; is an array which&lt;/font&gt;&lt;/div&gt;&lt;div style=&quot;font-size: 18px; line-height: 150%;&quot;&gt;&lt;font style=&quot;font-size: 18px;&quot;&gt;&lt;span style=&quot;white-space: pre;&quot;&gt;&#x9;&lt;/span&gt;- contains 25 element&amp;nbsp;&lt;span style=&quot;background-color: initial;&quot;&gt;⇒ 10th element exists&lt;/span&gt;&lt;/font&gt;&lt;/div&gt;&lt;div style=&quot;font-size: 18px; line-height: 150%;&quot;&gt;&lt;span style=&quot;background-color: initial;&quot;&gt;&lt;font style=&quot;font-size: 18px;&quot;&gt;&lt;span style=&quot;white-space: pre;&quot;&gt;&#x9;&lt;/span&gt;-&amp;nbsp;first element is at address 122&lt;/font&gt;&lt;/span&gt;&lt;/div&gt;&lt;div style=&quot;font-size: 18px; line-height: 150%;&quot;&gt;&lt;font style=&quot;font-size: 18px;&quot;&gt;4. Program computes: 10th element is at address 132&lt;br&gt;&lt;/font&gt;&lt;/div&gt;&lt;div style=&quot;font-size: 18px; line-height: 150%;&quot;&gt;&lt;font style=&quot;font-size: 18px;&quot;&gt;5. Program goes to address 132, find the value 100&lt;/font&gt;&lt;/div&gt;" style="text;html=1;align=left;verticalAlign=middle;whiteSpace=wrap;rounded=0;" parent="1" vertex="1">
          <mxGeometry x="390" y="440" width="440" height="300" as="geometry" />
        </mxCell>
      </root>
    </mxGraphModel>
  </diagram>
  <diagram id="6ekkajCj0wjRVlcPvcSz" name="hash">
    <mxGraphModel dx="1050" dy="629" grid="1" gridSize="10" guides="1" tooltips="1" connect="1" arrows="1" fold="1" page="1" pageScale="1" pageWidth="850" pageHeight="1100" math="1" shadow="0">
      <root>
        <mxCell id="0" />
        <mxCell id="1" parent="0" />
        <mxCell id="Jb_Dqx1hsKYsQwR39_bn-1" value="" style="shape=table;startSize=0;container=1;collapsible=0;childLayout=tableLayout;fontSize=16;" vertex="1" parent="1">
          <mxGeometry x="120" y="120" width="280" height="150" as="geometry" />
        </mxCell>
        <mxCell id="Jb_Dqx1hsKYsQwR39_bn-2" value="" style="shape=tableRow;horizontal=0;startSize=0;swimlaneHead=0;swimlaneBody=0;strokeColor=inherit;top=0;left=0;bottom=0;right=0;collapsible=0;dropTarget=0;fillColor=none;points=[[0,0.5],[1,0.5]];portConstraint=eastwest;fontSize=16;" vertex="1" parent="Jb_Dqx1hsKYsQwR39_bn-1">
          <mxGeometry width="280" height="30" as="geometry" />
        </mxCell>
        <mxCell id="Jb_Dqx1hsKYsQwR39_bn-3" value="105" style="shape=partialRectangle;html=1;whiteSpace=wrap;connectable=0;strokeColor=inherit;overflow=hidden;fillColor=none;top=0;left=0;bottom=0;right=0;pointerEvents=1;fontSize=16;" vertex="1" parent="Jb_Dqx1hsKYsQwR39_bn-2">
          <mxGeometry width="40" height="30" as="geometry">
            <mxRectangle width="40" height="30" as="alternateBounds" />
          </mxGeometry>
        </mxCell>
        <mxCell id="Jb_Dqx1hsKYsQwR39_bn-4" value="/" style="shape=partialRectangle;html=1;whiteSpace=wrap;connectable=0;strokeColor=inherit;overflow=hidden;fillColor=none;top=0;left=0;bottom=0;right=0;pointerEvents=1;fontSize=16;" vertex="1" parent="Jb_Dqx1hsKYsQwR39_bn-2">
          <mxGeometry x="40" width="240" height="30" as="geometry">
            <mxRectangle width="240" height="30" as="alternateBounds" />
          </mxGeometry>
        </mxCell>
        <mxCell id="Jb_Dqx1hsKYsQwR39_bn-5" value="" style="shape=tableRow;horizontal=0;startSize=0;swimlaneHead=0;swimlaneBody=0;strokeColor=inherit;top=0;left=0;bottom=0;right=0;collapsible=0;dropTarget=0;fillColor=none;points=[[0,0.5],[1,0.5]];portConstraint=eastwest;fontSize=16;" vertex="1" parent="Jb_Dqx1hsKYsQwR39_bn-1">
          <mxGeometry y="30" width="280" height="30" as="geometry" />
        </mxCell>
        <mxCell id="Jb_Dqx1hsKYsQwR39_bn-6" value="106" style="shape=partialRectangle;html=1;whiteSpace=wrap;connectable=0;strokeColor=inherit;overflow=hidden;fillColor=none;top=0;left=0;bottom=0;right=0;pointerEvents=1;fontSize=16;" vertex="1" parent="Jb_Dqx1hsKYsQwR39_bn-5">
          <mxGeometry width="40" height="30" as="geometry">
            <mxRectangle width="40" height="30" as="alternateBounds" />
          </mxGeometry>
        </mxCell>
        <mxCell id="Jb_Dqx1hsKYsQwR39_bn-7" value="&lt;span style=&quot;font-size: 14px;&quot;&gt;&quot;apple&quot;&lt;/span&gt;" style="shape=partialRectangle;html=1;whiteSpace=wrap;connectable=0;strokeColor=inherit;overflow=hidden;fillColor=none;top=0;left=0;bottom=0;right=0;pointerEvents=1;fontSize=16;" vertex="1" parent="Jb_Dqx1hsKYsQwR39_bn-5">
          <mxGeometry x="40" width="240" height="30" as="geometry">
            <mxRectangle width="240" height="30" as="alternateBounds" />
          </mxGeometry>
        </mxCell>
        <mxCell id="Jb_Dqx1hsKYsQwR39_bn-8" value="" style="shape=tableRow;horizontal=0;startSize=0;swimlaneHead=0;swimlaneBody=0;strokeColor=inherit;top=0;left=0;bottom=0;right=0;collapsible=0;dropTarget=0;fillColor=none;points=[[0,0.5],[1,0.5]];portConstraint=eastwest;fontSize=16;" vertex="1" parent="Jb_Dqx1hsKYsQwR39_bn-1">
          <mxGeometry y="60" width="280" height="30" as="geometry" />
        </mxCell>
        <mxCell id="Jb_Dqx1hsKYsQwR39_bn-9" value="107" style="shape=partialRectangle;html=1;whiteSpace=wrap;connectable=0;strokeColor=inherit;overflow=hidden;fillColor=none;top=0;left=0;bottom=0;right=0;pointerEvents=1;fontSize=16;" vertex="1" parent="Jb_Dqx1hsKYsQwR39_bn-8">
          <mxGeometry width="40" height="30" as="geometry">
            <mxRectangle width="40" height="30" as="alternateBounds" />
          </mxGeometry>
        </mxCell>
        <mxCell id="Jb_Dqx1hsKYsQwR39_bn-10" value="&lt;span style=&quot;font-size: 14px;&quot;&gt;&quot;5051&quot;&lt;/span&gt;" style="shape=partialRectangle;html=1;whiteSpace=wrap;connectable=0;strokeColor=inherit;overflow=hidden;fillColor=none;top=0;left=0;bottom=0;right=0;pointerEvents=1;fontSize=16;" vertex="1" parent="Jb_Dqx1hsKYsQwR39_bn-8">
          <mxGeometry x="40" width="240" height="30" as="geometry">
            <mxRectangle width="240" height="30" as="alternateBounds" />
          </mxGeometry>
        </mxCell>
        <mxCell id="Jb_Dqx1hsKYsQwR39_bn-11" value="" style="shape=tableRow;horizontal=0;startSize=0;swimlaneHead=0;swimlaneBody=0;strokeColor=inherit;top=0;left=0;bottom=0;right=0;collapsible=0;dropTarget=0;fillColor=none;points=[[0,0.5],[1,0.5]];portConstraint=eastwest;fontSize=16;" vertex="1" parent="Jb_Dqx1hsKYsQwR39_bn-1">
          <mxGeometry y="90" width="280" height="30" as="geometry" />
        </mxCell>
        <mxCell id="Jb_Dqx1hsKYsQwR39_bn-12" value="108" style="shape=partialRectangle;html=1;whiteSpace=wrap;connectable=0;strokeColor=inherit;overflow=hidden;fillColor=none;top=0;left=0;bottom=0;right=0;pointerEvents=1;fontSize=16;" vertex="1" parent="Jb_Dqx1hsKYsQwR39_bn-11">
          <mxGeometry width="40" height="30" as="geometry">
            <mxRectangle width="40" height="30" as="alternateBounds" />
          </mxGeometry>
        </mxCell>
        <mxCell id="Jb_Dqx1hsKYsQwR39_bn-13" value="&lt;span style=&quot;font-size: 14px;&quot;&gt;&quot;(0w0)&quot;&lt;/span&gt;" style="shape=partialRectangle;html=1;whiteSpace=wrap;connectable=0;strokeColor=inherit;overflow=hidden;fillColor=none;top=0;left=0;bottom=0;right=0;pointerEvents=1;fontSize=16;" vertex="1" parent="Jb_Dqx1hsKYsQwR39_bn-11">
          <mxGeometry x="40" width="240" height="30" as="geometry">
            <mxRectangle width="240" height="30" as="alternateBounds" />
          </mxGeometry>
        </mxCell>
        <mxCell id="2QAnF5VzUfgMPXVO9e4n-1" value="" style="shape=tableRow;horizontal=0;startSize=0;swimlaneHead=0;swimlaneBody=0;strokeColor=inherit;top=0;left=0;bottom=0;right=0;collapsible=0;dropTarget=0;fillColor=none;points=[[0,0.5],[1,0.5]];portConstraint=eastwest;fontSize=16;" vertex="1" parent="Jb_Dqx1hsKYsQwR39_bn-1">
          <mxGeometry y="120" width="280" height="30" as="geometry" />
        </mxCell>
        <mxCell id="2QAnF5VzUfgMPXVO9e4n-2" value="109" style="shape=partialRectangle;html=1;whiteSpace=wrap;connectable=0;strokeColor=inherit;overflow=hidden;fillColor=none;top=0;left=0;bottom=0;right=0;pointerEvents=1;fontSize=16;" vertex="1" parent="2QAnF5VzUfgMPXVO9e4n-1">
          <mxGeometry width="40" height="30" as="geometry">
            <mxRectangle width="40" height="30" as="alternateBounds" />
          </mxGeometry>
        </mxCell>
        <mxCell id="2QAnF5VzUfgMPXVO9e4n-3" value="&lt;span style=&quot;font-size: 14px;&quot;&gt;/&lt;/span&gt;" style="shape=partialRectangle;html=1;whiteSpace=wrap;connectable=0;strokeColor=inherit;overflow=hidden;fillColor=none;top=0;left=0;bottom=0;right=0;pointerEvents=1;fontSize=16;" vertex="1" parent="2QAnF5VzUfgMPXVO9e4n-1">
          <mxGeometry x="40" width="240" height="30" as="geometry">
            <mxRectangle width="240" height="30" as="alternateBounds" />
          </mxGeometry>
        </mxCell>
        <mxCell id="fx2RTlHRIlUglTRkdcMI-1" value="&lt;div&gt;&lt;span style=&quot;font-size: 20px;&quot;&gt;&lt;b&gt;E.g. The stored dictionary:&lt;/b&gt;&lt;/span&gt;&lt;/div&gt;&lt;font style=&quot;font-size: 20px;&quot;&gt;&lt;b&gt;dict = {&quot;apple&quot;: 50,&amp;nbsp;&lt;/b&gt;&lt;/font&gt;&lt;div&gt;&lt;font style=&quot;font-size: 20px;&quot;&gt;&lt;b&gt;&lt;span style=&quot;white-space: pre;&quot;&gt;&#x9;&lt;/span&gt;&lt;span style=&quot;white-space: pre;&quot;&gt;&#x9;&lt;/span&gt;&amp;nbsp;&quot;5051&quot;:&amp;nbsp; &quot;nice&quot;&lt;br&gt;&lt;/b&gt;&lt;/font&gt;&lt;/div&gt;&lt;div&gt;&lt;font style=&quot;font-size: 20px;&quot;&gt;&lt;b&gt;&amp;nbsp; &amp;nbsp; &amp;nbsp; &amp;nbsp; &amp;nbsp; &amp;nbsp; &amp;nbsp; &amp;nbsp; &quot;(0w0)&quot;: True}&lt;/b&gt;&lt;/font&gt;&lt;/div&gt;" style="text;html=1;align=center;verticalAlign=middle;whiteSpace=wrap;rounded=0;" vertex="1" parent="1">
          <mxGeometry x="410" y="120" width="270" height="110" as="geometry" />
        </mxCell>
        <mxCell id="MS9qD3FXhNG35mmpdmCv-1" value="&lt;font style=&quot;font-size: 18px;&quot;&gt;All keys are stored in some kind of list&lt;/font&gt;" style="text;html=1;align=center;verticalAlign=middle;whiteSpace=wrap;rounded=0;" vertex="1" parent="1">
          <mxGeometry x="450" y="280" width="230" height="50" as="geometry" />
        </mxCell>
        <mxCell id="BtNnntMnXDG3voMJtpkq-2" value="" style="curved=1;endArrow=classic;html=1;rounded=0;" edge="1" parent="1">
          <mxGeometry width="50" height="50" relative="1" as="geometry">
            <mxPoint x="490" y="270" as="sourcePoint" />
            <mxPoint x="425" y="250" as="targetPoint" />
            <Array as="points">
              <mxPoint x="490" y="240" />
            </Array>
          </mxGeometry>
        </mxCell>
        <mxCell id="BtNnntMnXDG3voMJtpkq-3" value="" style="shape=table;startSize=0;container=1;collapsible=0;childLayout=tableLayout;fontSize=16;" vertex="1" parent="1">
          <mxGeometry x="120" y="300" width="280" height="90" as="geometry" />
        </mxCell>
        <mxCell id="BtNnntMnXDG3voMJtpkq-4" value="" style="shape=tableRow;horizontal=0;startSize=0;swimlaneHead=0;swimlaneBody=0;strokeColor=inherit;top=0;left=0;bottom=0;right=0;collapsible=0;dropTarget=0;fillColor=none;points=[[0,0.5],[1,0.5]];portConstraint=eastwest;fontSize=16;" vertex="1" parent="BtNnntMnXDG3voMJtpkq-3">
          <mxGeometry width="280" height="30" as="geometry" />
        </mxCell>
        <mxCell id="BtNnntMnXDG3voMJtpkq-5" value="250" style="shape=partialRectangle;html=1;whiteSpace=wrap;connectable=0;strokeColor=inherit;overflow=hidden;fillColor=none;top=0;left=0;bottom=0;right=0;pointerEvents=1;fontSize=16;" vertex="1" parent="BtNnntMnXDG3voMJtpkq-4">
          <mxGeometry width="40" height="30" as="geometry">
            <mxRectangle width="40" height="30" as="alternateBounds" />
          </mxGeometry>
        </mxCell>
        <mxCell id="BtNnntMnXDG3voMJtpkq-6" value="/" style="shape=partialRectangle;html=1;whiteSpace=wrap;connectable=0;strokeColor=inherit;overflow=hidden;fillColor=none;top=0;left=0;bottom=0;right=0;pointerEvents=1;fontSize=16;" vertex="1" parent="BtNnntMnXDG3voMJtpkq-4">
          <mxGeometry x="40" width="240" height="30" as="geometry">
            <mxRectangle width="240" height="30" as="alternateBounds" />
          </mxGeometry>
        </mxCell>
        <mxCell id="BtNnntMnXDG3voMJtpkq-7" value="" style="shape=tableRow;horizontal=0;startSize=0;swimlaneHead=0;swimlaneBody=0;strokeColor=inherit;top=0;left=0;bottom=0;right=0;collapsible=0;dropTarget=0;fillColor=none;points=[[0,0.5],[1,0.5]];portConstraint=eastwest;fontSize=16;" vertex="1" parent="BtNnntMnXDG3voMJtpkq-3">
          <mxGeometry y="30" width="280" height="30" as="geometry" />
        </mxCell>
        <mxCell id="BtNnntMnXDG3voMJtpkq-8" value="251" style="shape=partialRectangle;html=1;whiteSpace=wrap;connectable=0;strokeColor=inherit;overflow=hidden;fillColor=none;top=0;left=0;bottom=0;right=0;pointerEvents=1;fontSize=16;" vertex="1" parent="BtNnntMnXDG3voMJtpkq-7">
          <mxGeometry width="40" height="30" as="geometry">
            <mxRectangle width="40" height="30" as="alternateBounds" />
          </mxGeometry>
        </mxCell>
        <mxCell id="BtNnntMnXDG3voMJtpkq-9" value="&lt;span style=&quot;font-size: 14px;&quot;&gt;&quot;nice&quot;&lt;/span&gt;" style="shape=partialRectangle;html=1;whiteSpace=wrap;connectable=0;strokeColor=inherit;overflow=hidden;fillColor=none;top=0;left=0;bottom=0;right=0;pointerEvents=1;fontSize=16;" vertex="1" parent="BtNnntMnXDG3voMJtpkq-7">
          <mxGeometry x="40" width="240" height="30" as="geometry">
            <mxRectangle width="240" height="30" as="alternateBounds" />
          </mxGeometry>
        </mxCell>
        <mxCell id="BtNnntMnXDG3voMJtpkq-16" value="" style="shape=tableRow;horizontal=0;startSize=0;swimlaneHead=0;swimlaneBody=0;strokeColor=inherit;top=0;left=0;bottom=0;right=0;collapsible=0;dropTarget=0;fillColor=none;points=[[0,0.5],[1,0.5]];portConstraint=eastwest;fontSize=16;" vertex="1" parent="BtNnntMnXDG3voMJtpkq-3">
          <mxGeometry y="60" width="280" height="30" as="geometry" />
        </mxCell>
        <mxCell id="BtNnntMnXDG3voMJtpkq-17" value="252" style="shape=partialRectangle;html=1;whiteSpace=wrap;connectable=0;strokeColor=inherit;overflow=hidden;fillColor=none;top=0;left=0;bottom=0;right=0;pointerEvents=1;fontSize=16;" vertex="1" parent="BtNnntMnXDG3voMJtpkq-16">
          <mxGeometry width="40" height="30" as="geometry">
            <mxRectangle width="40" height="30" as="alternateBounds" />
          </mxGeometry>
        </mxCell>
        <mxCell id="BtNnntMnXDG3voMJtpkq-18" value="&lt;span style=&quot;font-size: 14px;&quot;&gt;/&lt;/span&gt;" style="shape=partialRectangle;html=1;whiteSpace=wrap;connectable=0;strokeColor=inherit;overflow=hidden;fillColor=none;top=0;left=0;bottom=0;right=0;pointerEvents=1;fontSize=16;" vertex="1" parent="BtNnntMnXDG3voMJtpkq-16">
          <mxGeometry x="40" width="240" height="30" as="geometry">
            <mxRectangle width="240" height="30" as="alternateBounds" />
          </mxGeometry>
        </mxCell>
        <mxCell id="xHj8CAd7ty0Zy7RWxXik-1" value="&lt;font style=&quot;font-size: 16px;&quot;&gt;$$\vdots$$&lt;/font&gt;" style="text;html=1;align=center;verticalAlign=middle;whiteSpace=wrap;rounded=0;" vertex="1" parent="1">
          <mxGeometry x="110" y="270" width="60" height="30" as="geometry" />
        </mxCell>
        <mxCell id="eLOoUkKLD5fvGLKhi_wy-1" value="" style="shape=table;startSize=0;container=1;collapsible=0;childLayout=tableLayout;fontSize=16;" vertex="1" parent="1">
          <mxGeometry x="120" y="420" width="280" height="90" as="geometry" />
        </mxCell>
        <mxCell id="eLOoUkKLD5fvGLKhi_wy-2" value="" style="shape=tableRow;horizontal=0;startSize=0;swimlaneHead=0;swimlaneBody=0;strokeColor=inherit;top=0;left=0;bottom=0;right=0;collapsible=0;dropTarget=0;fillColor=none;points=[[0,0.5],[1,0.5]];portConstraint=eastwest;fontSize=16;" vertex="1" parent="eLOoUkKLD5fvGLKhi_wy-1">
          <mxGeometry width="280" height="30" as="geometry" />
        </mxCell>
        <mxCell id="eLOoUkKLD5fvGLKhi_wy-3" value="378" style="shape=partialRectangle;html=1;whiteSpace=wrap;connectable=0;strokeColor=inherit;overflow=hidden;fillColor=none;top=0;left=0;bottom=0;right=0;pointerEvents=1;fontSize=16;" vertex="1" parent="eLOoUkKLD5fvGLKhi_wy-2">
          <mxGeometry width="40" height="30" as="geometry">
            <mxRectangle width="40" height="30" as="alternateBounds" />
          </mxGeometry>
        </mxCell>
        <mxCell id="eLOoUkKLD5fvGLKhi_wy-4" value="/" style="shape=partialRectangle;html=1;whiteSpace=wrap;connectable=0;strokeColor=inherit;overflow=hidden;fillColor=none;top=0;left=0;bottom=0;right=0;pointerEvents=1;fontSize=16;" vertex="1" parent="eLOoUkKLD5fvGLKhi_wy-2">
          <mxGeometry x="40" width="240" height="30" as="geometry">
            <mxRectangle width="240" height="30" as="alternateBounds" />
          </mxGeometry>
        </mxCell>
        <mxCell id="eLOoUkKLD5fvGLKhi_wy-5" value="" style="shape=tableRow;horizontal=0;startSize=0;swimlaneHead=0;swimlaneBody=0;strokeColor=inherit;top=0;left=0;bottom=0;right=0;collapsible=0;dropTarget=0;fillColor=none;points=[[0,0.5],[1,0.5]];portConstraint=eastwest;fontSize=16;" vertex="1" parent="eLOoUkKLD5fvGLKhi_wy-1">
          <mxGeometry y="30" width="280" height="30" as="geometry" />
        </mxCell>
        <mxCell id="eLOoUkKLD5fvGLKhi_wy-6" value="379" style="shape=partialRectangle;html=1;whiteSpace=wrap;connectable=0;strokeColor=inherit;overflow=hidden;fillColor=none;top=0;left=0;bottom=0;right=0;pointerEvents=1;fontSize=16;" vertex="1" parent="eLOoUkKLD5fvGLKhi_wy-5">
          <mxGeometry width="40" height="30" as="geometry">
            <mxRectangle width="40" height="30" as="alternateBounds" />
          </mxGeometry>
        </mxCell>
        <mxCell id="eLOoUkKLD5fvGLKhi_wy-7" value="&lt;span style=&quot;font-size: 14px;&quot;&gt;50&lt;/span&gt;" style="shape=partialRectangle;html=1;whiteSpace=wrap;connectable=0;strokeColor=inherit;overflow=hidden;fillColor=none;top=0;left=0;bottom=0;right=0;pointerEvents=1;fontSize=16;" vertex="1" parent="eLOoUkKLD5fvGLKhi_wy-5">
          <mxGeometry x="40" width="240" height="30" as="geometry">
            <mxRectangle width="240" height="30" as="alternateBounds" />
          </mxGeometry>
        </mxCell>
        <mxCell id="eLOoUkKLD5fvGLKhi_wy-8" value="" style="shape=tableRow;horizontal=0;startSize=0;swimlaneHead=0;swimlaneBody=0;strokeColor=inherit;top=0;left=0;bottom=0;right=0;collapsible=0;dropTarget=0;fillColor=none;points=[[0,0.5],[1,0.5]];portConstraint=eastwest;fontSize=16;" vertex="1" parent="eLOoUkKLD5fvGLKhi_wy-1">
          <mxGeometry y="60" width="280" height="30" as="geometry" />
        </mxCell>
        <mxCell id="eLOoUkKLD5fvGLKhi_wy-9" value="380" style="shape=partialRectangle;html=1;whiteSpace=wrap;connectable=0;strokeColor=inherit;overflow=hidden;fillColor=none;top=0;left=0;bottom=0;right=0;pointerEvents=1;fontSize=16;" vertex="1" parent="eLOoUkKLD5fvGLKhi_wy-8">
          <mxGeometry width="40" height="30" as="geometry">
            <mxRectangle width="40" height="30" as="alternateBounds" />
          </mxGeometry>
        </mxCell>
        <mxCell id="eLOoUkKLD5fvGLKhi_wy-10" value="&lt;span style=&quot;font-size: 14px;&quot;&gt;/&lt;/span&gt;" style="shape=partialRectangle;html=1;whiteSpace=wrap;connectable=0;strokeColor=inherit;overflow=hidden;fillColor=none;top=0;left=0;bottom=0;right=0;pointerEvents=1;fontSize=16;" vertex="1" parent="eLOoUkKLD5fvGLKhi_wy-8">
          <mxGeometry x="40" width="240" height="30" as="geometry">
            <mxRectangle width="240" height="30" as="alternateBounds" />
          </mxGeometry>
        </mxCell>
        <mxCell id="eLOoUkKLD5fvGLKhi_wy-11" value="" style="shape=table;startSize=0;container=1;collapsible=0;childLayout=tableLayout;fontSize=16;" vertex="1" parent="1">
          <mxGeometry x="120" y="540" width="280" height="90" as="geometry" />
        </mxCell>
        <mxCell id="eLOoUkKLD5fvGLKhi_wy-12" value="" style="shape=tableRow;horizontal=0;startSize=0;swimlaneHead=0;swimlaneBody=0;strokeColor=inherit;top=0;left=0;bottom=0;right=0;collapsible=0;dropTarget=0;fillColor=none;points=[[0,0.5],[1,0.5]];portConstraint=eastwest;fontSize=16;" vertex="1" parent="eLOoUkKLD5fvGLKhi_wy-11">
          <mxGeometry width="280" height="30" as="geometry" />
        </mxCell>
        <mxCell id="eLOoUkKLD5fvGLKhi_wy-13" value="1103" style="shape=partialRectangle;html=1;whiteSpace=wrap;connectable=0;strokeColor=inherit;overflow=hidden;fillColor=none;top=0;left=0;bottom=0;right=0;pointerEvents=1;fontSize=16;" vertex="1" parent="eLOoUkKLD5fvGLKhi_wy-12">
          <mxGeometry width="40" height="30" as="geometry">
            <mxRectangle width="40" height="30" as="alternateBounds" />
          </mxGeometry>
        </mxCell>
        <mxCell id="eLOoUkKLD5fvGLKhi_wy-14" value="/" style="shape=partialRectangle;html=1;whiteSpace=wrap;connectable=0;strokeColor=inherit;overflow=hidden;fillColor=none;top=0;left=0;bottom=0;right=0;pointerEvents=1;fontSize=16;" vertex="1" parent="eLOoUkKLD5fvGLKhi_wy-12">
          <mxGeometry x="40" width="240" height="30" as="geometry">
            <mxRectangle width="240" height="30" as="alternateBounds" />
          </mxGeometry>
        </mxCell>
        <mxCell id="eLOoUkKLD5fvGLKhi_wy-15" value="" style="shape=tableRow;horizontal=0;startSize=0;swimlaneHead=0;swimlaneBody=0;strokeColor=inherit;top=0;left=0;bottom=0;right=0;collapsible=0;dropTarget=0;fillColor=none;points=[[0,0.5],[1,0.5]];portConstraint=eastwest;fontSize=16;" vertex="1" parent="eLOoUkKLD5fvGLKhi_wy-11">
          <mxGeometry y="30" width="280" height="30" as="geometry" />
        </mxCell>
        <mxCell id="eLOoUkKLD5fvGLKhi_wy-16" value="1104" style="shape=partialRectangle;html=1;whiteSpace=wrap;connectable=0;strokeColor=inherit;overflow=hidden;fillColor=none;top=0;left=0;bottom=0;right=0;pointerEvents=1;fontSize=16;" vertex="1" parent="eLOoUkKLD5fvGLKhi_wy-15">
          <mxGeometry width="40" height="30" as="geometry">
            <mxRectangle width="40" height="30" as="alternateBounds" />
          </mxGeometry>
        </mxCell>
        <mxCell id="eLOoUkKLD5fvGLKhi_wy-17" value="&lt;span style=&quot;font-size: 14px;&quot;&gt;True&lt;/span&gt;" style="shape=partialRectangle;html=1;whiteSpace=wrap;connectable=0;strokeColor=inherit;overflow=hidden;fillColor=none;top=0;left=0;bottom=0;right=0;pointerEvents=1;fontSize=16;" vertex="1" parent="eLOoUkKLD5fvGLKhi_wy-15">
          <mxGeometry x="40" width="240" height="30" as="geometry">
            <mxRectangle width="240" height="30" as="alternateBounds" />
          </mxGeometry>
        </mxCell>
        <mxCell id="eLOoUkKLD5fvGLKhi_wy-18" value="" style="shape=tableRow;horizontal=0;startSize=0;swimlaneHead=0;swimlaneBody=0;strokeColor=inherit;top=0;left=0;bottom=0;right=0;collapsible=0;dropTarget=0;fillColor=none;points=[[0,0.5],[1,0.5]];portConstraint=eastwest;fontSize=16;" vertex="1" parent="eLOoUkKLD5fvGLKhi_wy-11">
          <mxGeometry y="60" width="280" height="30" as="geometry" />
        </mxCell>
        <mxCell id="eLOoUkKLD5fvGLKhi_wy-19" value="1105" style="shape=partialRectangle;html=1;whiteSpace=wrap;connectable=0;strokeColor=inherit;overflow=hidden;fillColor=none;top=0;left=0;bottom=0;right=0;pointerEvents=1;fontSize=16;" vertex="1" parent="eLOoUkKLD5fvGLKhi_wy-18">
          <mxGeometry width="40" height="30" as="geometry">
            <mxRectangle width="40" height="30" as="alternateBounds" />
          </mxGeometry>
        </mxCell>
        <mxCell id="eLOoUkKLD5fvGLKhi_wy-20" value="&lt;span style=&quot;font-size: 14px;&quot;&gt;/&lt;/span&gt;" style="shape=partialRectangle;html=1;whiteSpace=wrap;connectable=0;strokeColor=inherit;overflow=hidden;fillColor=none;top=0;left=0;bottom=0;right=0;pointerEvents=1;fontSize=16;" vertex="1" parent="eLOoUkKLD5fvGLKhi_wy-18">
          <mxGeometry x="40" width="240" height="30" as="geometry">
            <mxRectangle width="240" height="30" as="alternateBounds" />
          </mxGeometry>
        </mxCell>
        <mxCell id="eLOoUkKLD5fvGLKhi_wy-21" value="&lt;font style=&quot;font-size: 16px;&quot;&gt;$$\vdots$$&lt;/font&gt;" style="text;html=1;align=center;verticalAlign=middle;whiteSpace=wrap;rounded=0;" vertex="1" parent="1">
          <mxGeometry x="110" y="390" width="60" height="30" as="geometry" />
        </mxCell>
        <mxCell id="eLOoUkKLD5fvGLKhi_wy-22" value="&lt;font style=&quot;font-size: 16px;&quot;&gt;$$\vdots$$&lt;/font&gt;" style="text;html=1;align=center;verticalAlign=middle;whiteSpace=wrap;rounded=0;" vertex="1" parent="1">
          <mxGeometry x="110" y="510" width="60" height="30" as="geometry" />
        </mxCell>
        <mxCell id="eLOoUkKLD5fvGLKhi_wy-23" value="&lt;font color=&quot;#ff0000&quot;&gt;&lt;font style=&quot;font-size: 18px;&quot;&gt;Suppose the hash function \(H(x)\)&lt;/font&gt;&lt;span style=&quot;font-size: 18px; background-color: initial;&quot;&gt;&amp;nbsp;yields the following:&lt;/span&gt;&lt;/font&gt;&lt;div&gt;&lt;div&gt;&lt;div style=&quot;font-size: 18px;&quot;&gt;&lt;font color=&quot;#ff0000&quot; style=&quot;font-size: 18px;&quot;&gt;$$H(\text{&quot;apple&quot;}) = 379$$&lt;/font&gt;&lt;/div&gt;&lt;div style=&quot;font-size: 18px;&quot;&gt;&lt;font color=&quot;#ff0000&quot; style=&quot;font-size: 18px;&quot;&gt;$$H(\text{&quot;5051&quot;}) = 251$$&lt;/font&gt;&lt;/div&gt;&lt;div style=&quot;font-size: 18px;&quot;&gt;&lt;font color=&quot;#ff0000&quot; style=&quot;font-size: 18px;&quot;&gt;$$H(\text{&quot;(0w0)&quot;}) = 1104$$&lt;/font&gt;&lt;/div&gt;&lt;div style=&quot;font-size: 18px;&quot;&gt;&lt;font color=&quot;#ff0000&quot; style=&quot;font-size: 18px;&quot;&gt;&amp;nbsp;&lt;/font&gt;&lt;/div&gt;&lt;/div&gt;&lt;/div&gt;" style="text;html=1;align=center;verticalAlign=middle;whiteSpace=wrap;rounded=0;" vertex="1" parent="1">
          <mxGeometry x="410" y="380" width="290" height="230" as="geometry" />
        </mxCell>
        <mxCell id="9hxWmfGMn9Rooz13qwR--1" value="&lt;font style=&quot;font-size: 16px;&quot;&gt;Stored value&lt;/font&gt;" style="text;html=1;align=center;verticalAlign=middle;whiteSpace=wrap;rounded=0;" vertex="1" parent="1">
          <mxGeometry x="220" y="80" width="110" height="30" as="geometry" />
        </mxCell>
        <mxCell id="eEJfxX47C8A4yQLaqffQ-1" value="&lt;font style=&quot;font-size: 16px;&quot;&gt;Memory address&lt;/font&gt;" style="text;html=1;align=center;verticalAlign=middle;whiteSpace=wrap;rounded=0;" vertex="1" parent="1">
          <mxGeometry x="110" y="80" width="60" height="30" as="geometry" />
        </mxCell>
      </root>
    </mxGraphModel>
  </diagram>
  <diagram id="ndM4OsKceNDKq9C7h9JB" name="link list">
    <mxGraphModel dx="875" dy="524" grid="1" gridSize="10" guides="1" tooltips="1" connect="1" arrows="1" fold="1" page="1" pageScale="1" pageWidth="850" pageHeight="1100" math="1" shadow="0">
      <root>
        <mxCell id="0" />
        <mxCell id="1" parent="0" />
        <mxCell id="DlAK8g8PXbhKADR_-UsK-2" style="edgeStyle=orthogonalEdgeStyle;rounded=0;orthogonalLoop=1;jettySize=auto;html=1;entryX=0;entryY=0.5;entryDx=0;entryDy=0;" parent="1" source="9o9An7U_J-tbwn9tGZv5-1" target="DlAK8g8PXbhKADR_-UsK-1" edge="1">
          <mxGeometry relative="1" as="geometry" />
        </mxCell>
        <mxCell id="9o9An7U_J-tbwn9tGZv5-1" value="&lt;font style=&quot;font-size: 16px;&quot;&gt;157.31&lt;/font&gt;" style="ellipse;whiteSpace=wrap;html=1;" parent="1" vertex="1">
          <mxGeometry x="150" y="220" width="60" height="60" as="geometry" />
        </mxCell>
        <mxCell id="mQMIm2cuN_ES7x-5UyLT-1" value="&lt;font style=&quot;font-size: 16px;&quot;&gt;&lt;b&gt;Often illustrated as:&lt;/b&gt;&lt;/font&gt;" style="text;html=1;align=center;verticalAlign=middle;whiteSpace=wrap;rounded=0;" parent="1" vertex="1">
          <mxGeometry x="65" y="180" width="180" height="30" as="geometry" />
        </mxCell>
        <mxCell id="DlAK8g8PXbhKADR_-UsK-4" style="edgeStyle=orthogonalEdgeStyle;rounded=0;orthogonalLoop=1;jettySize=auto;html=1;entryX=0;entryY=0.5;entryDx=0;entryDy=0;" parent="1" source="DlAK8g8PXbhKADR_-UsK-1" target="DlAK8g8PXbhKADR_-UsK-3" edge="1">
          <mxGeometry relative="1" as="geometry" />
        </mxCell>
        <mxCell id="DlAK8g8PXbhKADR_-UsK-1" value="&lt;font style=&quot;font-size: 17px;&quot;&gt;&quot;Hi&quot;&lt;/font&gt;" style="ellipse;whiteSpace=wrap;html=1;" parent="1" vertex="1">
          <mxGeometry x="240" y="220" width="60" height="60" as="geometry" />
        </mxCell>
        <mxCell id="DlAK8g8PXbhKADR_-UsK-6" style="edgeStyle=orthogonalEdgeStyle;rounded=0;orthogonalLoop=1;jettySize=auto;html=1;entryX=0;entryY=0.5;entryDx=0;entryDy=0;" parent="1" source="DlAK8g8PXbhKADR_-UsK-3" target="DlAK8g8PXbhKADR_-UsK-5" edge="1">
          <mxGeometry relative="1" as="geometry" />
        </mxCell>
        <mxCell id="DlAK8g8PXbhKADR_-UsK-3" value="&lt;font style=&quot;font-size: 17px;&quot;&gt;True&lt;/font&gt;" style="ellipse;whiteSpace=wrap;html=1;" parent="1" vertex="1">
          <mxGeometry x="330" y="220" width="60" height="60" as="geometry" />
        </mxCell>
        <mxCell id="DlAK8g8PXbhKADR_-UsK-5" value="&lt;font style=&quot;font-size: 17px;&quot;&gt;38&lt;/font&gt;" style="ellipse;whiteSpace=wrap;html=1;" parent="1" vertex="1">
          <mxGeometry x="420" y="220" width="60" height="60" as="geometry" />
        </mxCell>
        <mxCell id="DlAK8g8PXbhKADR_-UsK-7" value="&lt;font style=&quot;font-size: 16px;&quot;&gt;&lt;b&gt;In fact it is stored like:&lt;/b&gt;&lt;/font&gt;" style="text;html=1;align=center;verticalAlign=middle;whiteSpace=wrap;rounded=0;" parent="1" vertex="1">
          <mxGeometry x="70" y="300" width="190" height="30" as="geometry" />
        </mxCell>
        <mxCell id="0PZOShOuehIfpDJ79Sai-1" value="" style="shape=table;startSize=0;container=1;collapsible=0;childLayout=tableLayout;fontSize=16;" parent="1" vertex="1">
          <mxGeometry x="160" y="380" width="200" height="40" as="geometry" />
        </mxCell>
        <mxCell id="0PZOShOuehIfpDJ79Sai-2" value="" style="shape=tableRow;horizontal=0;startSize=0;swimlaneHead=0;swimlaneBody=0;strokeColor=inherit;top=0;left=0;bottom=0;right=0;collapsible=0;dropTarget=0;fillColor=none;points=[[0,0.5],[1,0.5]];portConstraint=eastwest;fontSize=16;" parent="0PZOShOuehIfpDJ79Sai-1" vertex="1">
          <mxGeometry width="200" height="20" as="geometry" />
        </mxCell>
        <mxCell id="0PZOShOuehIfpDJ79Sai-3" value="331" style="shape=partialRectangle;html=1;whiteSpace=wrap;connectable=0;strokeColor=inherit;overflow=hidden;fillColor=none;top=0;left=0;bottom=0;right=0;pointerEvents=1;fontSize=16;" parent="0PZOShOuehIfpDJ79Sai-2" vertex="1">
          <mxGeometry width="40" height="20" as="geometry">
            <mxRectangle width="40" height="20" as="alternateBounds" />
          </mxGeometry>
        </mxCell>
        <mxCell id="0PZOShOuehIfpDJ79Sai-4" value="157.31" style="shape=partialRectangle;html=1;whiteSpace=wrap;connectable=0;strokeColor=inherit;overflow=hidden;fillColor=none;top=0;left=0;bottom=0;right=0;pointerEvents=1;fontSize=16;" parent="0PZOShOuehIfpDJ79Sai-2" vertex="1">
          <mxGeometry x="40" width="160" height="20" as="geometry">
            <mxRectangle width="160" height="20" as="alternateBounds" />
          </mxGeometry>
        </mxCell>
        <mxCell id="0PZOShOuehIfpDJ79Sai-5" value="" style="shape=tableRow;horizontal=0;startSize=0;swimlaneHead=0;swimlaneBody=0;strokeColor=inherit;top=0;left=0;bottom=0;right=0;collapsible=0;dropTarget=0;fillColor=none;points=[[0,0.5],[1,0.5]];portConstraint=eastwest;fontSize=16;" parent="0PZOShOuehIfpDJ79Sai-1" vertex="1">
          <mxGeometry y="20" width="200" height="20" as="geometry" />
        </mxCell>
        <mxCell id="0PZOShOuehIfpDJ79Sai-6" value="332" style="shape=partialRectangle;html=1;whiteSpace=wrap;connectable=0;strokeColor=inherit;overflow=hidden;fillColor=none;top=0;left=0;bottom=0;right=0;pointerEvents=1;fontSize=16;" parent="0PZOShOuehIfpDJ79Sai-5" vertex="1">
          <mxGeometry width="40" height="20" as="geometry">
            <mxRectangle width="40" height="20" as="alternateBounds" />
          </mxGeometry>
        </mxCell>
        <mxCell id="0PZOShOuehIfpDJ79Sai-7" value="&lt;font style=&quot;font-size: 16px;&quot;&gt;765&lt;/font&gt;" style="shape=partialRectangle;html=1;whiteSpace=wrap;connectable=0;strokeColor=inherit;overflow=hidden;fillColor=none;top=0;left=0;bottom=0;right=0;pointerEvents=1;fontSize=16;" parent="0PZOShOuehIfpDJ79Sai-5" vertex="1">
          <mxGeometry x="40" width="160" height="20" as="geometry">
            <mxRectangle width="160" height="20" as="alternateBounds" />
          </mxGeometry>
        </mxCell>
        <mxCell id="8wE--R49BgwaKRlb0lU8-1" value="" style="shape=table;startSize=0;container=1;collapsible=0;childLayout=tableLayout;fontSize=16;" parent="1" vertex="1">
          <mxGeometry x="160" y="520" width="200" height="60" as="geometry" />
        </mxCell>
        <mxCell id="8wE--R49BgwaKRlb0lU8-2" value="" style="shape=tableRow;horizontal=0;startSize=0;swimlaneHead=0;swimlaneBody=0;strokeColor=inherit;top=0;left=0;bottom=0;right=0;collapsible=0;dropTarget=0;fillColor=none;points=[[0,0.5],[1,0.5]];portConstraint=eastwest;fontSize=16;" parent="8wE--R49BgwaKRlb0lU8-1" vertex="1">
          <mxGeometry width="200" height="20" as="geometry" />
        </mxCell>
        <mxCell id="8wE--R49BgwaKRlb0lU8-3" value="865" style="shape=partialRectangle;html=1;whiteSpace=wrap;connectable=0;strokeColor=inherit;overflow=hidden;fillColor=none;top=0;left=0;bottom=0;right=0;pointerEvents=1;fontSize=16;" parent="8wE--R49BgwaKRlb0lU8-2" vertex="1">
          <mxGeometry width="40" height="20" as="geometry">
            <mxRectangle width="40" height="20" as="alternateBounds" />
          </mxGeometry>
        </mxCell>
        <mxCell id="8wE--R49BgwaKRlb0lU8-4" value="/" style="shape=partialRectangle;html=1;whiteSpace=wrap;connectable=0;strokeColor=inherit;overflow=hidden;fillColor=none;top=0;left=0;bottom=0;right=0;pointerEvents=1;fontSize=16;" parent="8wE--R49BgwaKRlb0lU8-2" vertex="1">
          <mxGeometry x="40" width="160" height="20" as="geometry">
            <mxRectangle width="160" height="20" as="alternateBounds" />
          </mxGeometry>
        </mxCell>
        <mxCell id="8wE--R49BgwaKRlb0lU8-5" value="" style="shape=tableRow;horizontal=0;startSize=0;swimlaneHead=0;swimlaneBody=0;strokeColor=inherit;top=0;left=0;bottom=0;right=0;collapsible=0;dropTarget=0;fillColor=none;points=[[0,0.5],[1,0.5]];portConstraint=eastwest;fontSize=16;" parent="8wE--R49BgwaKRlb0lU8-1" vertex="1">
          <mxGeometry y="20" width="200" height="20" as="geometry" />
        </mxCell>
        <mxCell id="8wE--R49BgwaKRlb0lU8-6" value="866" style="shape=partialRectangle;html=1;whiteSpace=wrap;connectable=0;strokeColor=inherit;overflow=hidden;fillColor=none;top=0;left=0;bottom=0;right=0;pointerEvents=1;fontSize=16;" parent="8wE--R49BgwaKRlb0lU8-5" vertex="1">
          <mxGeometry width="40" height="20" as="geometry">
            <mxRectangle width="40" height="20" as="alternateBounds" />
          </mxGeometry>
        </mxCell>
        <mxCell id="8wE--R49BgwaKRlb0lU8-7" value="&lt;font style=&quot;font-size: 16px;&quot;&gt;331&lt;/font&gt;" style="shape=partialRectangle;html=1;whiteSpace=wrap;connectable=0;strokeColor=inherit;overflow=hidden;fillColor=none;top=0;left=0;bottom=0;right=0;pointerEvents=1;fontSize=16;" parent="8wE--R49BgwaKRlb0lU8-5" vertex="1">
          <mxGeometry x="40" width="160" height="20" as="geometry">
            <mxRectangle width="160" height="20" as="alternateBounds" />
          </mxGeometry>
        </mxCell>
        <mxCell id="8wE--R49BgwaKRlb0lU8-8" style="shape=tableRow;horizontal=0;startSize=0;swimlaneHead=0;swimlaneBody=0;strokeColor=inherit;top=0;left=0;bottom=0;right=0;collapsible=0;dropTarget=0;fillColor=none;points=[[0,0.5],[1,0.5]];portConstraint=eastwest;fontSize=16;" parent="8wE--R49BgwaKRlb0lU8-1" vertex="1">
          <mxGeometry y="40" width="200" height="20" as="geometry" />
        </mxCell>
        <mxCell id="8wE--R49BgwaKRlb0lU8-9" value="867" style="shape=partialRectangle;html=1;whiteSpace=wrap;connectable=0;strokeColor=inherit;overflow=hidden;fillColor=none;top=0;left=0;bottom=0;right=0;pointerEvents=1;fontSize=16;" parent="8wE--R49BgwaKRlb0lU8-8" vertex="1">
          <mxGeometry width="40" height="20" as="geometry">
            <mxRectangle width="40" height="20" as="alternateBounds" />
          </mxGeometry>
        </mxCell>
        <mxCell id="8wE--R49BgwaKRlb0lU8-10" value="/" style="shape=partialRectangle;html=1;whiteSpace=wrap;connectable=0;strokeColor=inherit;overflow=hidden;fillColor=none;top=0;left=0;bottom=0;right=0;pointerEvents=1;fontSize=16;" parent="8wE--R49BgwaKRlb0lU8-8" vertex="1">
          <mxGeometry x="40" width="160" height="20" as="geometry">
            <mxRectangle width="160" height="20" as="alternateBounds" />
          </mxGeometry>
        </mxCell>
        <mxCell id="0PZOShOuehIfpDJ79Sai-12" value="" style="shape=table;startSize=0;container=1;collapsible=0;childLayout=tableLayout;fontSize=16;" parent="1" vertex="1">
          <mxGeometry x="160" y="450" width="200" height="40" as="geometry" />
        </mxCell>
        <mxCell id="0PZOShOuehIfpDJ79Sai-13" value="" style="shape=tableRow;horizontal=0;startSize=0;swimlaneHead=0;swimlaneBody=0;strokeColor=inherit;top=0;left=0;bottom=0;right=0;collapsible=0;dropTarget=0;fillColor=none;points=[[0,0.5],[1,0.5]];portConstraint=eastwest;fontSize=16;" parent="0PZOShOuehIfpDJ79Sai-12" vertex="1">
          <mxGeometry width="200" height="20" as="geometry" />
        </mxCell>
        <mxCell id="0PZOShOuehIfpDJ79Sai-14" value="765" style="shape=partialRectangle;html=1;whiteSpace=wrap;connectable=0;strokeColor=inherit;overflow=hidden;fillColor=none;top=0;left=0;bottom=0;right=0;pointerEvents=1;fontSize=16;" parent="0PZOShOuehIfpDJ79Sai-13" vertex="1">
          <mxGeometry width="40" height="20" as="geometry">
            <mxRectangle width="40" height="20" as="alternateBounds" />
          </mxGeometry>
        </mxCell>
        <mxCell id="0PZOShOuehIfpDJ79Sai-15" value="&quot;Hi&quot;" style="shape=partialRectangle;html=1;whiteSpace=wrap;connectable=0;strokeColor=inherit;overflow=hidden;fillColor=none;top=0;left=0;bottom=0;right=0;pointerEvents=1;fontSize=16;" parent="0PZOShOuehIfpDJ79Sai-13" vertex="1">
          <mxGeometry x="40" width="160" height="20" as="geometry">
            <mxRectangle width="160" height="20" as="alternateBounds" />
          </mxGeometry>
        </mxCell>
        <mxCell id="0PZOShOuehIfpDJ79Sai-16" value="" style="shape=tableRow;horizontal=0;startSize=0;swimlaneHead=0;swimlaneBody=0;strokeColor=inherit;top=0;left=0;bottom=0;right=0;collapsible=0;dropTarget=0;fillColor=none;points=[[0,0.5],[1,0.5]];portConstraint=eastwest;fontSize=16;" parent="0PZOShOuehIfpDJ79Sai-12" vertex="1">
          <mxGeometry y="20" width="200" height="20" as="geometry" />
        </mxCell>
        <mxCell id="0PZOShOuehIfpDJ79Sai-17" value="766" style="shape=partialRectangle;html=1;whiteSpace=wrap;connectable=0;strokeColor=inherit;overflow=hidden;fillColor=none;top=0;left=0;bottom=0;right=0;pointerEvents=1;fontSize=16;" parent="0PZOShOuehIfpDJ79Sai-16" vertex="1">
          <mxGeometry width="40" height="20" as="geometry">
            <mxRectangle width="40" height="20" as="alternateBounds" />
          </mxGeometry>
        </mxCell>
        <mxCell id="0PZOShOuehIfpDJ79Sai-18" value="&lt;font style=&quot;font-size: 16px;&quot;&gt;2123&lt;/font&gt;" style="shape=partialRectangle;html=1;whiteSpace=wrap;connectable=0;strokeColor=inherit;overflow=hidden;fillColor=none;top=0;left=0;bottom=0;right=0;pointerEvents=1;fontSize=16;" parent="0PZOShOuehIfpDJ79Sai-16" vertex="1">
          <mxGeometry x="40" width="160" height="20" as="geometry">
            <mxRectangle width="160" height="20" as="alternateBounds" />
          </mxGeometry>
        </mxCell>
        <mxCell id="Lpc2qNYfNaUe7y0CP7aC-1" value="" style="shape=table;startSize=0;container=1;collapsible=0;childLayout=tableLayout;fontSize=16;" parent="1" vertex="1">
          <mxGeometry x="160" y="680" width="200" height="40" as="geometry" />
        </mxCell>
        <mxCell id="Lpc2qNYfNaUe7y0CP7aC-2" value="" style="shape=tableRow;horizontal=0;startSize=0;swimlaneHead=0;swimlaneBody=0;strokeColor=inherit;top=0;left=0;bottom=0;right=0;collapsible=0;dropTarget=0;fillColor=none;points=[[0,0.5],[1,0.5]];portConstraint=eastwest;fontSize=16;" parent="Lpc2qNYfNaUe7y0CP7aC-1" vertex="1">
          <mxGeometry width="200" height="20" as="geometry" />
        </mxCell>
        <mxCell id="Lpc2qNYfNaUe7y0CP7aC-3" value="2123" style="shape=partialRectangle;html=1;whiteSpace=wrap;connectable=0;strokeColor=inherit;overflow=hidden;fillColor=none;top=0;left=0;bottom=0;right=0;pointerEvents=1;fontSize=16;" parent="Lpc2qNYfNaUe7y0CP7aC-2" vertex="1">
          <mxGeometry width="40" height="20" as="geometry">
            <mxRectangle width="40" height="20" as="alternateBounds" />
          </mxGeometry>
        </mxCell>
        <mxCell id="Lpc2qNYfNaUe7y0CP7aC-4" value="True" style="shape=partialRectangle;html=1;whiteSpace=wrap;connectable=0;strokeColor=inherit;overflow=hidden;fillColor=none;top=0;left=0;bottom=0;right=0;pointerEvents=1;fontSize=16;" parent="Lpc2qNYfNaUe7y0CP7aC-2" vertex="1">
          <mxGeometry x="40" width="160" height="20" as="geometry">
            <mxRectangle width="160" height="20" as="alternateBounds" />
          </mxGeometry>
        </mxCell>
        <mxCell id="Lpc2qNYfNaUe7y0CP7aC-5" value="" style="shape=tableRow;horizontal=0;startSize=0;swimlaneHead=0;swimlaneBody=0;strokeColor=inherit;top=0;left=0;bottom=0;right=0;collapsible=0;dropTarget=0;fillColor=none;points=[[0,0.5],[1,0.5]];portConstraint=eastwest;fontSize=16;" parent="Lpc2qNYfNaUe7y0CP7aC-1" vertex="1">
          <mxGeometry y="20" width="200" height="20" as="geometry" />
        </mxCell>
        <mxCell id="Lpc2qNYfNaUe7y0CP7aC-6" value="2124" style="shape=partialRectangle;html=1;whiteSpace=wrap;connectable=0;strokeColor=inherit;overflow=hidden;fillColor=none;top=0;left=0;bottom=0;right=0;pointerEvents=1;fontSize=16;" parent="Lpc2qNYfNaUe7y0CP7aC-5" vertex="1">
          <mxGeometry width="40" height="20" as="geometry">
            <mxRectangle width="40" height="20" as="alternateBounds" />
          </mxGeometry>
        </mxCell>
        <mxCell id="Lpc2qNYfNaUe7y0CP7aC-7" value="&lt;font style=&quot;font-size: 16px;&quot;&gt;1086&lt;/font&gt;" style="shape=partialRectangle;html=1;whiteSpace=wrap;connectable=0;strokeColor=inherit;overflow=hidden;fillColor=none;top=0;left=0;bottom=0;right=0;pointerEvents=1;fontSize=16;" parent="Lpc2qNYfNaUe7y0CP7aC-5" vertex="1">
          <mxGeometry x="40" width="160" height="20" as="geometry">
            <mxRectangle width="160" height="20" as="alternateBounds" />
          </mxGeometry>
        </mxCell>
        <mxCell id="gek0w-kqiJHaOiPG9ceE-1" value="&lt;font style=&quot;font-size: 16px;&quot;&gt;$$\vdots$$&lt;/font&gt;" style="text;html=1;align=center;verticalAlign=middle;whiteSpace=wrap;rounded=0;" parent="1" vertex="1">
          <mxGeometry x="150" y="420" width="60" height="30" as="geometry" />
        </mxCell>
        <mxCell id="gek0w-kqiJHaOiPG9ceE-2" value="&lt;font style=&quot;font-size: 16px;&quot;&gt;$$\vdots$$&lt;/font&gt;" style="text;html=1;align=center;verticalAlign=middle;whiteSpace=wrap;rounded=0;" parent="1" vertex="1">
          <mxGeometry x="150" y="490" width="60" height="30" as="geometry" />
        </mxCell>
        <mxCell id="gek0w-kqiJHaOiPG9ceE-3" value="&lt;font style=&quot;font-size: 16px;&quot;&gt;$$\vdots$$&lt;/font&gt;" style="text;html=1;align=center;verticalAlign=middle;whiteSpace=wrap;rounded=0;" parent="1" vertex="1">
          <mxGeometry x="150" y="580" width="60" height="30" as="geometry" />
        </mxCell>
        <mxCell id="gek0w-kqiJHaOiPG9ceE-5" value="" style="shape=table;startSize=0;container=1;collapsible=0;childLayout=tableLayout;fontSize=16;" parent="1" vertex="1">
          <mxGeometry x="160" y="610" width="200" height="40" as="geometry" />
        </mxCell>
        <mxCell id="gek0w-kqiJHaOiPG9ceE-6" value="" style="shape=tableRow;horizontal=0;startSize=0;swimlaneHead=0;swimlaneBody=0;strokeColor=inherit;top=0;left=0;bottom=0;right=0;collapsible=0;dropTarget=0;fillColor=none;points=[[0,0.5],[1,0.5]];portConstraint=eastwest;fontSize=16;" parent="gek0w-kqiJHaOiPG9ceE-5" vertex="1">
          <mxGeometry width="200" height="20" as="geometry" />
        </mxCell>
        <mxCell id="gek0w-kqiJHaOiPG9ceE-7" value="1086" style="shape=partialRectangle;html=1;whiteSpace=wrap;connectable=0;strokeColor=inherit;overflow=hidden;fillColor=none;top=0;left=0;bottom=0;right=0;pointerEvents=1;fontSize=16;" parent="gek0w-kqiJHaOiPG9ceE-6" vertex="1">
          <mxGeometry width="40" height="20" as="geometry">
            <mxRectangle width="40" height="20" as="alternateBounds" />
          </mxGeometry>
        </mxCell>
        <mxCell id="gek0w-kqiJHaOiPG9ceE-8" value="38" style="shape=partialRectangle;html=1;whiteSpace=wrap;connectable=0;strokeColor=inherit;overflow=hidden;fillColor=none;top=0;left=0;bottom=0;right=0;pointerEvents=1;fontSize=16;" parent="gek0w-kqiJHaOiPG9ceE-6" vertex="1">
          <mxGeometry x="40" width="160" height="20" as="geometry">
            <mxRectangle width="160" height="20" as="alternateBounds" />
          </mxGeometry>
        </mxCell>
        <mxCell id="gek0w-kqiJHaOiPG9ceE-9" value="" style="shape=tableRow;horizontal=0;startSize=0;swimlaneHead=0;swimlaneBody=0;strokeColor=inherit;top=0;left=0;bottom=0;right=0;collapsible=0;dropTarget=0;fillColor=none;points=[[0,0.5],[1,0.5]];portConstraint=eastwest;fontSize=16;" parent="gek0w-kqiJHaOiPG9ceE-5" vertex="1">
          <mxGeometry y="20" width="200" height="20" as="geometry" />
        </mxCell>
        <mxCell id="gek0w-kqiJHaOiPG9ceE-10" value="1087" style="shape=partialRectangle;html=1;whiteSpace=wrap;connectable=0;strokeColor=inherit;overflow=hidden;fillColor=none;top=0;left=0;bottom=0;right=0;pointerEvents=1;fontSize=16;" parent="gek0w-kqiJHaOiPG9ceE-9" vertex="1">
          <mxGeometry width="40" height="20" as="geometry">
            <mxRectangle width="40" height="20" as="alternateBounds" />
          </mxGeometry>
        </mxCell>
        <mxCell id="gek0w-kqiJHaOiPG9ceE-11" value="&lt;font style=&quot;font-size: 16px;&quot;&gt;-&lt;/font&gt;" style="shape=partialRectangle;html=1;whiteSpace=wrap;connectable=0;strokeColor=inherit;overflow=hidden;fillColor=none;top=0;left=0;bottom=0;right=0;pointerEvents=1;fontSize=16;" parent="gek0w-kqiJHaOiPG9ceE-9" vertex="1">
          <mxGeometry x="40" width="160" height="20" as="geometry">
            <mxRectangle width="160" height="20" as="alternateBounds" />
          </mxGeometry>
        </mxCell>
        <mxCell id="gek0w-kqiJHaOiPG9ceE-12" value="&lt;font style=&quot;font-size: 16px;&quot;&gt;$$\vdots$$&lt;/font&gt;" style="text;html=1;align=center;verticalAlign=middle;whiteSpace=wrap;rounded=0;" parent="1" vertex="1">
          <mxGeometry x="150" y="650" width="60" height="30" as="geometry" />
        </mxCell>
        <mxCell id="gek0w-kqiJHaOiPG9ceE-13" value="&lt;font color=&quot;#ff0000&quot;&gt;Address of the&amp;nbsp;&lt;/font&gt;&lt;div&gt;&lt;font color=&quot;#ff0000&quot;&gt;first node&lt;/font&gt;&lt;/div&gt;&lt;div&gt;&lt;font color=&quot;#ff0000&quot;&gt;i.e. &quot;head&quot;&lt;/font&gt;&lt;/div&gt;" style="text;html=1;align=center;verticalAlign=middle;whiteSpace=wrap;rounded=0;fontColor=default;" parent="1" vertex="1">
          <mxGeometry x="400" y="540" width="90" height="30" as="geometry" />
        </mxCell>
        <mxCell id="gek0w-kqiJHaOiPG9ceE-14" value="" style="endArrow=classic;html=1;rounded=0;exitX=0;exitY=0.5;exitDx=0;exitDy=0;strokeColor=#FF0000;" parent="1" source="gek0w-kqiJHaOiPG9ceE-13" edge="1">
          <mxGeometry width="50" height="50" relative="1" as="geometry">
            <mxPoint x="370" y="580" as="sourcePoint" />
            <mxPoint x="370" y="555" as="targetPoint" />
          </mxGeometry>
        </mxCell>
        <mxCell id="gek0w-kqiJHaOiPG9ceE-15" value="" style="curved=1;endArrow=classic;html=1;rounded=0;" parent="1" edge="1">
          <mxGeometry width="50" height="50" relative="1" as="geometry">
            <mxPoint x="150" y="550" as="sourcePoint" />
            <mxPoint x="150" y="390" as="targetPoint" />
            <Array as="points">
              <mxPoint x="100" y="550" />
              <mxPoint x="100" y="390" />
            </Array>
          </mxGeometry>
        </mxCell>
        <mxCell id="gek0w-kqiJHaOiPG9ceE-19" value="" style="curved=1;endArrow=classic;html=1;rounded=0;" parent="1" edge="1">
          <mxGeometry width="50" height="50" relative="1" as="geometry">
            <mxPoint x="150" y="410" as="sourcePoint" />
            <mxPoint x="150" y="460" as="targetPoint" />
            <Array as="points">
              <mxPoint x="130" y="410" />
              <mxPoint x="130" y="460" />
            </Array>
          </mxGeometry>
        </mxCell>
        <mxCell id="gek0w-kqiJHaOiPG9ceE-23" value="" style="curved=1;endArrow=classic;html=1;rounded=0;" parent="1" edge="1">
          <mxGeometry width="50" height="50" relative="1" as="geometry">
            <mxPoint x="150" y="480" as="sourcePoint" />
            <mxPoint x="150" y="690" as="targetPoint" />
            <Array as="points">
              <mxPoint x="120" y="480" />
              <mxPoint x="120" y="690" />
            </Array>
          </mxGeometry>
        </mxCell>
        <mxCell id="gek0w-kqiJHaOiPG9ceE-24" value="" style="curved=1;endArrow=classic;html=1;rounded=0;" parent="1" edge="1">
          <mxGeometry width="50" height="50" relative="1" as="geometry">
            <mxPoint x="150" y="710" as="sourcePoint" />
            <mxPoint x="150" y="620" as="targetPoint" />
            <Array as="points">
              <mxPoint x="100" y="710" />
              <mxPoint x="100" y="620" />
            </Array>
          </mxGeometry>
        </mxCell>
        <mxCell id="gek0w-kqiJHaOiPG9ceE-27" value="&lt;font color=&quot;#ff0000&quot;&gt;Each node is composed of&lt;/font&gt;&lt;div&gt;&lt;font color=&quot;#ff0000&quot;&gt;- Its data&lt;/font&gt;&lt;/div&gt;&lt;div&gt;&lt;font color=&quot;#ff0000&quot;&gt;- Address of its&amp;nbsp;&amp;nbsp;&lt;/font&gt;&lt;/div&gt;&lt;div&gt;&lt;font color=&quot;#ff0000&quot;&gt;&amp;nbsp; next element&lt;/font&gt;&lt;/div&gt;" style="text;html=1;align=left;verticalAlign=middle;whiteSpace=wrap;rounded=0;fontColor=default;" parent="1" vertex="1">
          <mxGeometry x="390" y="370" width="90" height="100" as="geometry" />
        </mxCell>
        <mxCell id="gek0w-kqiJHaOiPG9ceE-30" value="&lt;font style=&quot;font-size: 45px;&quot; color=&quot;#ff0000&quot;&gt;}&lt;/font&gt;" style="text;html=1;align=center;verticalAlign=middle;whiteSpace=wrap;rounded=0;" parent="1" vertex="1">
          <mxGeometry x="347" y="370" width="60" height="60" as="geometry" />
        </mxCell>
        <mxCell id="tiESW63p2vIzq0YikeGH-1" value="&lt;font style=&quot;font-size: 16px;&quot;&gt;Memory address&lt;/font&gt;" style="text;html=1;align=center;verticalAlign=middle;whiteSpace=wrap;rounded=0;" parent="1" vertex="1">
          <mxGeometry x="140" y="340" width="60" height="30" as="geometry" />
        </mxCell>
        <mxCell id="xZsRRyiov3udGFjjb2FY-1" value="&lt;font style=&quot;font-size: 16px;&quot;&gt;Stored value&lt;/font&gt;" style="text;html=1;align=center;verticalAlign=middle;whiteSpace=wrap;rounded=0;" parent="1" vertex="1">
          <mxGeometry x="220" y="350" width="110" height="30" as="geometry" />
        </mxCell>
        <mxCell id="qJf_R8kvnaTlbBSkNzt_-2" style="edgeStyle=orthogonalEdgeStyle;rounded=0;orthogonalLoop=1;jettySize=auto;html=1;exitX=0;exitY=0.5;exitDx=0;exitDy=0;strokeColor=#FF0000;" edge="1" parent="1" source="qJf_R8kvnaTlbBSkNzt_-1">
          <mxGeometry relative="1" as="geometry">
            <mxPoint x="370" y="630" as="targetPoint" />
          </mxGeometry>
        </mxCell>
        <mxCell id="qJf_R8kvnaTlbBSkNzt_-1" value="&lt;font color=&quot;#ff0000&quot;&gt;last node has no next element&lt;/font&gt;" style="text;html=1;align=center;verticalAlign=middle;whiteSpace=wrap;rounded=0;fontColor=default;" vertex="1" parent="1">
          <mxGeometry x="400" y="607.5" width="100" height="45" as="geometry" />
        </mxCell>
      </root>
    </mxGraphModel>
  </diagram>
</mxfile>
